<svg xmlns="http://www.w3.org/2000/svg" xmlns:xlink="http://www.w3.org/1999/xlink" width="40" zoomAndPan="magnify" viewBox="0 0 30 30.000001" height="40" preserveAspectRatio="xMidYMid meet" version="1.0"><defs><clipPath id="c9fe2de9fc"><path d="M 2.242188 10 L 27 10 L 27 28 L 2.242188 28 Z M 2.242188 10 " clip-rule="nonzero"/></clipPath><clipPath id="3a8e480e3e"><path d="M 13 1.195312 L 22 1.195312 L 22 10 L 13 10 Z M 13 1.195312 " clip-rule="nonzero"/></clipPath></defs><g clip-path="url(#c9fe2de9fc)"><path fill="#fafbfc" d="M 23.4375 27.816406 L 20.949219 27.816406 C 20.800781 27.816406 20.667969 27.730469 20.609375 27.59375 L 19.863281 25.855469 C 18.847656 26.050781 15.535156 26.582031 13 25.667969 L 11.703125 27.648438 C 11.636719 27.753906 11.519531 27.816406 11.394531 27.816406 L 9.277344 27.816406 C 9.074219 27.816406 8.910156 27.65625 8.90625 27.457031 L 8.824219 24.027344 C 8.011719 23.40625 4.09375 20.382812 3.261719 19.554688 C 2.242188 18.535156 2.542969 16.253906 2.558594 16.15625 C 2.582031 15.972656 2.738281 15.835938 2.921875 15.835938 L 2.925781 15.835938 L 4.394531 15.839844 C 4.410156 15.839844 4.425781 15.839844 4.441406 15.839844 C 4.433594 15.839844 5.234375 15.859375 6.261719 14.238281 C 6.617188 13.683594 6.742188 13.195312 6.632812 12.78125 C 6.507812 12.296875 6.101562 12.066406 6.097656 12.066406 C 5.949219 11.984375 5.871094 11.816406 5.910156 11.652344 C 5.921875 11.609375 6.183594 10.597656 7.609375 10.597656 C 8.886719 10.597656 10.617188 12.941406 10.949219 13.414062 C 11.070312 13.578125 11.03125 13.8125 10.863281 13.929688 C 10.695312 14.046875 10.464844 14.007812 10.347656 13.839844 C 9.609375 12.800781 8.269531 11.335938 7.609375 11.335938 C 7.128906 11.335938 6.878906 11.496094 6.75 11.632812 C 6.964844 11.824219 7.230469 12.140625 7.351562 12.59375 C 7.511719 13.214844 7.355469 13.902344 6.886719 14.636719 C 5.667969 16.554688 4.59375 16.589844 4.378906 16.578125 L 3.257812 16.578125 C 3.214844 17.277344 3.253906 18.496094 3.785156 19.03125 C 4.660156 19.902344 9.367188 23.511719 9.414062 23.546875 C 9.503906 23.617188 9.558594 23.71875 9.5625 23.832031 L 9.636719 27.078125 L 11.195312 27.078125 L 12.542969 25.011719 C 12.640625 24.863281 12.832031 24.804688 12.996094 24.875 C 15.757812 26.019531 19.957031 25.078125 20 25.070312 C 20.171875 25.027344 20.351562 25.117188 20.421875 25.28125 L 21.195312 27.078125 L 23.070312 27.078125 L 23.070312 23.5 C 23.070312 23.398438 23.109375 23.300781 23.183594 23.234375 C 23.34375 23.078125 27.085938 19.359375 24.492188 14.839844 C 20.941406 8.65625 12.09375 12.472656 12.003906 12.511719 C 11.816406 12.59375 11.597656 12.507812 11.515625 12.320312 C 11.433594 12.132812 11.519531 11.914062 11.707031 11.832031 C 11.800781 11.792969 21.253906 7.714844 25.132812 14.472656 C 27.75 19.027344 24.472656 22.929688 23.808594 23.648438 L 23.808594 27.445312 C 23.808594 27.652344 23.644531 27.816406 23.4375 27.816406 " fill-opacity="1" fill-rule="nonzero"/></g><g clip-path="url(#3a8e480e3e)"><path fill="#fafbfc" d="M 17.496094 1.941406 C 15.515625 1.941406 13.902344 3.554688 13.902344 5.535156 C 13.902344 7.519531 15.515625 9.128906 17.496094 9.128906 C 19.480469 9.128906 21.09375 7.519531 21.09375 5.535156 C 21.09375 3.554688 19.480469 1.941406 17.496094 1.941406 Z M 17.496094 9.871094 C 15.105469 9.871094 13.160156 7.925781 13.160156 5.535156 C 13.160156 3.144531 15.105469 1.199219 17.496094 1.199219 C 19.886719 1.199219 21.832031 3.144531 21.832031 5.535156 C 21.832031 7.925781 19.886719 9.871094 17.496094 9.871094 " fill-opacity="1" fill-rule="nonzero"/></g><path fill="#fafbfc" d="M 17.820312 7.441406 L 17.175781 7.441406 C 16.550781 7.441406 16.039062 6.929688 16.039062 6.300781 C 16.039062 6.097656 16.203125 5.933594 16.410156 5.933594 C 16.613281 5.933594 16.777344 6.097656 16.777344 6.300781 C 16.777344 6.519531 16.957031 6.699219 17.175781 6.699219 L 17.820312 6.699219 C 18.039062 6.699219 18.214844 6.519531 18.214844 6.300781 C 18.214844 6.085938 18.039062 5.90625 17.820312 5.90625 L 17.175781 5.90625 C 16.550781 5.90625 16.039062 5.394531 16.039062 4.769531 C 16.039062 4.140625 16.550781 3.632812 17.175781 3.632812 L 17.820312 3.632812 C 18.445312 3.632812 18.957031 4.140625 18.957031 4.769531 C 18.957031 4.972656 18.789062 5.140625 18.585938 5.140625 C 18.378906 5.140625 18.214844 4.972656 18.214844 4.769531 C 18.214844 4.550781 18.039062 4.371094 17.820312 4.371094 L 17.175781 4.371094 C 16.957031 4.371094 16.777344 4.550781 16.777344 4.769531 C 16.777344 4.988281 16.957031 5.164062 17.175781 5.164062 L 17.820312 5.164062 C 18.445312 5.164062 18.957031 5.675781 18.957031 6.300781 C 18.957031 6.929688 18.445312 7.441406 17.820312 7.441406 " fill-opacity="1" fill-rule="nonzero"/><path fill="#fafbfc" d="M 17.496094 4.371094 C 17.292969 4.371094 17.128906 4.207031 17.128906 4 L 17.128906 3.292969 C 17.128906 3.089844 17.292969 2.921875 17.496094 2.921875 C 17.703125 2.921875 17.867188 3.089844 17.867188 3.292969 L 17.867188 4 C 17.867188 4.207031 17.703125 4.371094 17.496094 4.371094 " fill-opacity="1" fill-rule="nonzero"/><path fill="#fafbfc" d="M 17.496094 8.148438 C 17.292969 8.148438 17.128906 7.984375 17.128906 7.777344 L 17.128906 7.070312 C 17.128906 6.863281 17.292969 6.699219 17.496094 6.699219 C 17.703125 6.699219 17.867188 6.863281 17.867188 7.070312 L 17.867188 7.777344 C 17.867188 7.984375 17.703125 8.148438 17.496094 8.148438 " fill-opacity="1" fill-rule="nonzero"/><path fill="#fafbfc" d="M 20.859375 14.066406 C 20.816406 14.066406 20.769531 14.054688 20.722656 14.039062 C 17.609375 12.804688 14.828125 14.019531 14.800781 14.03125 C 14.613281 14.113281 14.394531 14.03125 14.3125 13.847656 C 14.226562 13.660156 14.308594 13.441406 14.496094 13.355469 C 14.621094 13.300781 17.578125 11.996094 20.996094 13.347656 C 21.1875 13.425781 21.277344 13.640625 21.203125 13.828125 C 21.148438 13.976562 21.007812 14.066406 20.859375 14.066406 " fill-opacity="1" fill-rule="nonzero"/></svg>