<svg xmlns="http://www.w3.org/2000/svg" xmlns:xlink="http://www.w3.org/1999/xlink" width="40" zoomAndPan="magnify" viewBox="0 0 30 30.000001" height="40" preserveAspectRatio="xMidYMid meet" version="1.0"><defs><clipPath id="477c74d39f"><path d="M 0.484375 12 L 14 12 L 14 22 L 0.484375 22 Z M 0.484375 12 " clip-rule="nonzero"/></clipPath><clipPath id="b1103961fb"><path d="M 12 1.003906 L 29.515625 1.003906 L 29.515625 27.859375 L 12 27.859375 Z M 12 1.003906 " clip-rule="nonzero"/></clipPath></defs><g clip-path="url(#477c74d39f)"><path fill="#3a5f7d" d="M 12.03125 20.707031 C 12.03125 20.707031 7.242188 23.570312 5.527344 19.15625 C 3.816406 14.742188 0.484375 12.917969 0.484375 12.917969 C 0.484375 12.917969 11.179688 10.027344 13.644531 21.429688 C 12.277344 19.308594 9.839844 16.464844 7.101562 16.359375 C 7.101562 16.359375 9.453125 16.589844 12.03125 20.707031 Z M 12.03125 20.707031 " fill-opacity="1" fill-rule="evenodd"/></g><g clip-path="url(#b1103961fb)"><path fill="#fafbfc" d="M 15.992188 25.277344 C 15.992188 25.277344 27.089844 26.050781 26.160156 16.65625 C 25.230469 7.265625 29.515625 1.019531 29.515625 1.019531 C 29.515625 1.019531 7.890625 5.507812 13.773438 28.011719 C 14.296875 23.003906 16.0625 15.75 20.84375 13.097656 C 20.84375 13.097656 16.871094 15.625 15.992188 25.277344 Z M 15.992188 25.277344 " fill-opacity="1" fill-rule="evenodd"/></g></svg>