<svg xmlns="http://www.w3.org/2000/svg" xmlns:xlink="http://www.w3.org/1999/xlink" width="40" zoomAndPan="magnify" viewBox="0 0 30 30.000001" height="40" preserveAspectRatio="xMidYMid meet" version="1.0"><defs><clipPath id="8ffac4980b"><path d="M 7.160156 1.453125 L 23 1.453125 L 23 27.582031 L 7.160156 27.582031 Z M 7.160156 1.453125 " clip-rule="nonzero"/></clipPath></defs><g clip-path="url(#8ffac4980b)"><path fill="#fafbfc" d="M 15.878906 1.457031 L 7.519531 4.066406 C 7.3125 4.171875 7.160156 4.382812 7.160156 4.589844 L 7.160156 24.964844 C 7.160156 25.226562 7.324219 25.433594 7.585938 25.488281 L 15.945312 27.578125 L 16.042969 27.578125 C 16.148438 27.578125 16.25 27.53125 16.351562 27.480469 C 16.457031 27.375 16.566406 27.210938 16.566406 27.054688 L 16.566406 1.976562 C 16.566406 1.820312 16.457031 1.65625 16.351562 1.554688 C 16.195312 1.449219 16.035156 1.457031 15.878906 1.457031 Z M 17.609375 3.546875 L 17.609375 4.589844 L 21.789062 4.589844 L 21.789062 24.441406 L 17.609375 24.441406 L 17.609375 25.488281 L 22.3125 25.488281 C 22.597656 25.488281 22.835938 25.253906 22.835938 24.964844 L 22.835938 4.066406 C 22.835938 3.78125 22.597656 3.546875 22.3125 3.546875 Z M 14.476562 13.992188 C 14.789062 13.992188 14.996094 14.359375 14.996094 14.777344 C 14.996094 15.195312 14.789062 15.5625 14.476562 15.5625 C 14.160156 15.5625 13.953125 15.195312 13.953125 14.777344 C 13.953125 14.359375 14.160156 13.992188 14.476562 13.992188 Z M 14.476562 13.992188 " fill-opacity="1" fill-rule="nonzero"/></g></svg>