<svg xmlns="http://www.w3.org/2000/svg" xmlns:xlink="http://www.w3.org/1999/xlink" width="400" zoomAndPan="magnify" viewBox="0 0 300 149.999998" height="200" preserveAspectRatio="xMidYMid meet" version="1.0"><defs><g/><clipPath id="09f059040e"><path d="M 0.761719 5 L 60 5 L 60 121 L 0.761719 121 Z M 0.761719 5 " clip-rule="nonzero"/></clipPath><clipPath id="cfad30fee1"><rect x="0" width="238" y="0" height="139"/></clipPath></defs><g transform="matrix(1, 0, 0, 1, 35, -0.000000000000007527)"><g clip-path="url(#cfad30fee1)"><g clip-path="url(#09f059040e)"><g fill="#ffffff" fill-opacity="1"><g transform="translate(0.955433, 102.291093)"><g><path d="M 57.828125 -70.765625 C 57.992188 -68.953125 58.117188 -67.117188 58.203125 -65.265625 C 58.296875 -63.410156 58.34375 -61.40625 58.34375 -59.25 C 58.507812 -55.457031 58.632812 -51.679688 58.71875 -47.921875 C 58.8125 -44.171875 58.816406 -40.53125 58.734375 -37 C 58.640625 -36.132812 58.59375 -35.207031 58.59375 -34.21875 C 58.59375 -33.226562 58.59375 -32.210938 58.59375 -31.171875 L 58.59375 -30.78125 C 58.59375 -28.71875 58.59375 -26.5625 58.59375 -24.3125 C 58.59375 -22.070312 58.507812 -19.875 58.34375 -17.71875 C 58.34375 -14.007812 58.210938 -10.734375 57.953125 -7.890625 C 57.691406 -5.046875 57.390625 -2.847656 57.046875 -1.296875 C 56.867188 -0.347656 56.5 0.878906 55.9375 2.390625 C 55.382812 3.898438 54.332031 4.914062 52.78125 5.4375 C 52.601562 6.125 52.472656 6.703125 52.390625 7.171875 C 52.304688 7.648438 52.265625 8.101562 52.265625 8.53125 C 52.265625 8.707031 52.175781 8.882812 52 9.0625 C 49.84375 15.4375 47 18.625 43.46875 18.625 C 43.125 18.625 42.800781 18.601562 42.5 18.5625 C 42.195312 18.519531 41.828125 18.367188 41.390625 18.109375 C 40.273438 17.585938 39.476562 16.851562 39 15.90625 C 38.53125 14.957031 38.25 13.925781 38.15625 12.8125 C 36.4375 11.945312 35.46875 10.691406 35.25 9.046875 C 35.03125 7.410156 34.921875 5.6875 34.921875 3.875 L 34.921875 3.5 C 34.921875 2.976562 34.941406 2.414062 34.984375 1.8125 C 35.035156 1.207031 35.0625 0.472656 35.0625 -0.390625 C 35.0625 -0.910156 35.101562 -1.253906 35.1875 -1.421875 L 35.1875 -2.453125 C 35.1875 -2.710938 35.164062 -2.972656 35.125 -3.234375 C 35.082031 -3.492188 35.0625 -3.835938 35.0625 -4.265625 L 35.0625 -8.15625 C 34.625 -7.550781 34.125 -7.03125 33.5625 -6.59375 C 33.007812 -6.164062 32.382812 -5.910156 31.6875 -5.828125 C 29.707031 -5.566406 28.203125 -6.164062 27.171875 -7.625 L 26 -9.578125 C 25.738281 -9.660156 25.566406 -9.832031 25.484375 -10.09375 L 23.28125 -14.484375 L 23.03125 -14.625 C 22.851562 -12.71875 22.785156 -10.859375 22.828125 -9.046875 C 22.867188 -7.242188 22.9375 -5.519531 23.03125 -3.875 C 23.195312 -3.625 23.28125 -3.320312 23.28125 -2.96875 C 23.28125 -1.675781 22.828125 -0.578125 21.921875 0.328125 C 21.015625 1.234375 19.832031 1.726562 18.375 1.8125 C 18.195312 1.8125 17.847656 1.941406 17.328125 2.203125 C 17.328125 2.890625 17.285156 3.515625 17.203125 4.078125 C 17.117188 4.640625 16.988281 5.132812 16.8125 5.5625 C 16.300781 7.03125 15.523438 8.066406 14.484375 8.671875 C 13.453125 9.273438 12.503906 9.578125 11.640625 9.578125 C 9.054688 9.578125 7.203125 8.023438 6.078125 4.921875 C 5.910156 4.742188 5.800781 4.503906 5.75 4.203125 C 5.707031 3.898438 5.601562 3.617188 5.4375 3.359375 C 4.488281 2.585938 3.625 1.378906 2.84375 -0.265625 C 2.5 -1.117188 2.109375 -2.535156 1.671875 -4.515625 C 1.242188 -6.503906 0.898438 -9.3125 0.640625 -12.9375 C 0.210938 -18.96875 0.300781 -25.347656 0.90625 -32.078125 C 1.507812 -38.804688 2.414062 -46.265625 3.625 -54.453125 C 3.625 -54.972656 3.664062 -55.488281 3.75 -56 C 3.832031 -56.519531 3.921875 -57 4.015625 -57.4375 L 4.140625 -58.078125 C 4.566406 -61.097656 4.972656 -64.050781 5.359375 -66.9375 C 5.753906 -69.832031 6.035156 -72.660156 6.203125 -75.421875 L 6.203125 -79.6875 L 6.078125 -86.671875 L 6.078125 -87.578125 L 6.203125 -88.609375 L 6.46875 -90.8125 L 6.734375 -90.8125 C 6.898438 -91.238281 7.132812 -91.6875 7.4375 -92.15625 C 7.738281 -92.632812 8.101562 -93.175781 8.53125 -93.78125 C 9.050781 -94.382812 9.65625 -94.90625 10.34375 -95.34375 C 11.726562 -95.945312 12.976562 -96.398438 14.09375 -96.703125 C 15.21875 -97.003906 16.296875 -97.15625 17.328125 -97.15625 C 19.921875 -97.15625 21.953125 -96.25 23.421875 -94.4375 C 23.765625 -94.34375 24.019531 -94.082031 24.1875 -93.65625 C 24.707031 -92.96875 25.140625 -92.382812 25.484375 -91.90625 C 25.828125 -91.4375 26.039062 -90.984375 26.125 -90.546875 L 26.265625 -90.03125 C 26.429688 -89.769531 26.515625 -89.515625 26.515625 -89.265625 C 26.773438 -89.171875 26.96875 -89.035156 27.09375 -88.859375 C 27.226562 -88.691406 27.378906 -88.476562 27.546875 -88.21875 C 27.984375 -87.707031 28.351562 -87.171875 28.65625 -86.609375 C 28.957031 -86.046875 29.148438 -85.503906 29.234375 -84.984375 L 29.359375 -84.59375 C 29.535156 -84.25 29.625 -84.078125 29.625 -84.078125 L 29.625 -83.5625 L 29.75 -83.4375 L 30.140625 -81.234375 L 30.921875 -73.21875 C 31.085938 -72.53125 31.191406 -71.863281 31.234375 -71.21875 C 31.285156 -70.570312 31.351562 -69.898438 31.4375 -69.203125 C 31.601562 -69.722656 31.769531 -70.238281 31.9375 -70.75 C 32.113281 -71.269531 32.289062 -71.789062 32.46875 -72.3125 C 32.726562 -73.257812 32.960938 -74.117188 33.171875 -74.890625 C 33.390625 -75.671875 33.585938 -76.40625 33.765625 -77.09375 C 33.765625 -77.53125 33.785156 -77.898438 33.828125 -78.203125 C 33.867188 -78.503906 33.890625 -78.78125 33.890625 -79.03125 C 33.972656 -79.289062 34.015625 -79.59375 34.015625 -79.9375 L 34.28125 -83.953125 L 34.28125 -84.984375 C 34.28125 -85.160156 34.320312 -85.332031 34.40625 -85.5 C 34.40625 -85.757812 34.445312 -85.9375 34.53125 -86.03125 C 34.625 -86.375 34.691406 -86.695312 34.734375 -87 C 34.773438 -87.300781 35.007812 -87.796875 35.4375 -88.484375 L 35.4375 -88.609375 C 35.695312 -88.953125 36.085938 -89.46875 36.609375 -90.15625 C 36.953125 -90.507812 37.296875 -90.859375 37.640625 -91.203125 C 37.984375 -91.546875 38.375 -91.847656 38.8125 -92.109375 C 40.363281 -92.960938 41.867188 -93.390625 43.328125 -93.390625 L 43.984375 -93.390625 C 45.015625 -93.390625 46.023438 -93.238281 47.015625 -92.9375 C 48.015625 -92.632812 48.769531 -92.269531 49.28125 -91.84375 C 49.882812 -91.582031 50.421875 -91.210938 50.890625 -90.734375 C 51.367188 -90.265625 51.828125 -89.773438 52.265625 -89.265625 L 52.515625 -88.734375 L 50.703125 -87.703125 L 52.515625 -88.734375 L 52.78125 -88.484375 C 52.863281 -88.304688 52.96875 -88.085938 53.09375 -87.828125 C 53.226562 -87.578125 53.296875 -87.363281 53.296875 -87.1875 C 53.378906 -86.925781 53.441406 -86.753906 53.484375 -86.671875 C 53.535156 -86.585938 53.5625 -86.5 53.5625 -86.40625 C 53.5625 -86.238281 53.601562 -86.109375 53.6875 -86.015625 C 53.769531 -85.929688 53.8125 -85.804688 53.8125 -85.640625 C 54.070312 -85.378906 54.332031 -85.097656 54.59375 -84.796875 C 54.851562 -84.492188 55.109375 -84.210938 55.359375 -83.953125 C 55.359375 -83.785156 55.378906 -83.703125 55.421875 -83.703125 C 55.472656 -83.703125 55.5 -83.65625 55.5 -83.5625 C 55.5 -83.476562 55.539062 -83.4375 55.625 -83.4375 L 54.328125 -82.40625 L 55.890625 -83.4375 L 55.890625 -82.921875 C 55.972656 -82.742188 56.054688 -82.566406 56.140625 -82.390625 C 56.222656 -82.222656 56.265625 -82.054688 56.265625 -81.890625 C 56.441406 -81.453125 56.613281 -81.0625 56.78125 -80.71875 L 56.78125 -79.9375 C 56.957031 -79.507812 57.066406 -79.226562 57.109375 -79.09375 C 57.148438 -78.96875 57.171875 -78.773438 57.171875 -78.515625 C 57.265625 -78.171875 57.3125 -77.613281 57.3125 -76.84375 C 57.65625 -75.113281 57.828125 -73.085938 57.828125 -70.765625 Z M 11.640625 3.234375 C 11.472656 3.316406 11.34375 3.359375 11.25 3.359375 C 11.164062 3.359375 11.035156 3.40625 10.859375 3.5 C 11.117188 4.09375 11.378906 4.4375 11.640625 4.53125 Z M 16.046875 -3.75 C 15.867188 -3.75 15.78125 -3.664062 15.78125 -3.5 C 15.78125 -3.320312 15.867188 -3.144531 16.046875 -2.96875 Z M 20.1875 -29.359375 C 20.875 -27.898438 21.519531 -26.628906 22.125 -25.546875 C 22.726562 -24.472656 23.332031 -23.375 23.9375 -22.25 L 26 -18.75 L 26.265625 -18.234375 L 26.515625 -18.109375 L 26.515625 -17.71875 L 27.03125 -17.203125 L 27.8125 -16.046875 L 27.8125 -16.171875 C 27.988281 -16.335938 28.078125 -16.507812 28.078125 -16.6875 C 28.242188 -17.03125 28.414062 -17.332031 28.59375 -17.59375 C 29.019531 -18.800781 29.46875 -20.007812 29.9375 -21.21875 C 30.414062 -22.425781 30.914062 -23.632812 31.4375 -24.84375 C 31.863281 -26.039062 32.335938 -27.265625 32.859375 -28.515625 C 33.378906 -29.773438 33.894531 -31.050781 34.40625 -32.34375 C 34.40625 -32.601562 34.492188 -32.816406 34.671875 -32.984375 C 34.835938 -33.421875 34.984375 -33.914062 35.109375 -34.46875 C 35.242188 -35.03125 35.441406 -35.53125 35.703125 -35.96875 C 35.960938 -36.820312 36.265625 -37.632812 36.609375 -38.40625 C 36.953125 -39.1875 37.296875 -39.96875 37.640625 -40.75 L 39.578125 -46.046875 C 39.753906 -46.742188 39.945312 -47.390625 40.15625 -47.984375 C 40.375 -48.585938 40.613281 -49.191406 40.875 -49.796875 C 40.875 -44.628906 40.851562 -39.5 40.8125 -34.40625 C 40.769531 -29.320312 40.53125 -24.234375 40.09375 -19.140625 C 39.925781 -16.296875 39.84375 -13.601562 39.84375 -11.0625 C 39.84375 -8.519531 39.84375 -6.253906 39.84375 -4.265625 C 40.613281 -9.359375 41.191406 -14.488281 41.578125 -19.65625 C 41.972656 -24.832031 42.257812 -30.140625 42.4375 -35.578125 C 42.6875 -41.785156 42.6875 -48.207031 42.4375 -54.84375 C 42.4375 -54.9375 42.476562 -54.984375 42.5625 -54.984375 C 42.644531 -54.984375 42.6875 -55.023438 42.6875 -55.109375 C 42.769531 -52.429688 42.832031 -49.753906 42.875 -47.078125 C 42.925781 -44.410156 42.953125 -41.785156 42.953125 -39.203125 C 42.859375 -36.085938 42.769531 -33.066406 42.6875 -30.140625 C 42.601562 -27.210938 42.472656 -24.28125 42.296875 -21.34375 C 42.128906 -18.5 41.894531 -15.609375 41.59375 -12.671875 C 41.289062 -9.742188 40.878906 -6.8125 40.359375 -3.875 C 40.273438 -3.363281 40.164062 -2.828125 40.03125 -2.265625 C 39.90625 -1.703125 39.800781 -1.078125 39.71875 -0.390625 C 39.71875 0.472656 39.71875 1.25 39.71875 1.9375 C 39.71875 2.625 39.671875 3.269531 39.578125 3.875 C 39.578125 5.175781 39.597656 6.234375 39.640625 7.046875 C 39.691406 7.867188 39.890625 8.363281 40.234375 8.53125 C 40.578125 8.625 41.09375 8.238281 41.78125 7.375 C 42.46875 6.507812 43.285156 4.828125 44.234375 2.328125 C 44.410156 1.640625 44.539062 0.882812 44.625 0.0625 C 44.71875 -0.757812 44.847656 -1.597656 45.015625 -2.453125 C 45.191406 -3.398438 45.320312 -4.394531 45.40625 -5.4375 C 45.664062 -5.863281 45.878906 -6.035156 46.046875 -5.953125 C 46.222656 -5.867188 46.441406 -5.695312 46.703125 -5.4375 C 46.867188 -5.257812 46.953125 -5.171875 46.953125 -5.171875 L 46.953125 -5.046875 C 47.554688 -9.441406 48.007812 -13.75 48.3125 -17.96875 C 48.613281 -22.195312 48.851562 -26.46875 49.03125 -30.78125 C 49.113281 -39.144531 49.113281 -47.6875 49.03125 -56.40625 C 49.113281 -52 49.175781 -47.660156 49.21875 -43.390625 C 49.257812 -39.128906 49.195312 -34.800781 49.03125 -30.40625 C 49.03125 -26.09375 48.898438 -21.820312 48.640625 -17.59375 C 48.378906 -13.363281 47.988281 -8.960938 47.46875 -4.390625 C 47.644531 -4.140625 47.882812 -4.140625 48.1875 -4.390625 C 48.488281 -4.648438 48.8125 -5.726562 49.15625 -7.625 C 49.582031 -9.007812 49.90625 -11.101562 50.125 -13.90625 C 50.34375 -16.707031 50.535156 -19.75 50.703125 -23.03125 C 50.796875 -26.394531 50.816406 -29.800781 50.765625 -33.25 C 50.722656 -36.695312 50.75 -39.710938 50.84375 -42.296875 C 50.925781 -46.003906 50.945312 -49.691406 50.90625 -53.359375 C 50.863281 -57.023438 50.796875 -60.753906 50.703125 -64.546875 C 50.535156 -66.359375 50.429688 -68.210938 50.390625 -70.109375 C 50.347656 -72.003906 50.28125 -73.898438 50.1875 -75.796875 C 50.019531 -76.578125 49.910156 -77.375 49.859375 -78.1875 C 49.816406 -79.007812 49.710938 -79.8125 49.546875 -80.59375 L 49.546875 -81.75 C 49.546875 -81.925781 49.5 -82.144531 49.40625 -82.40625 C 49.320312 -82.664062 49.28125 -82.878906 49.28125 -83.046875 L 49.28125 -83.3125 C 49.195312 -83.394531 49.15625 -83.5 49.15625 -83.625 C 49.15625 -83.757812 49.113281 -83.910156 49.03125 -84.078125 L 49.03125 -84.984375 C 48.9375 -84.984375 48.890625 -85.03125 48.890625 -85.125 C 48.804688 -85.125 48.765625 -85.207031 48.765625 -85.375 L 48.640625 -85.5 C 48.554688 -85.59375 48.515625 -85.679688 48.515625 -85.765625 L 48.515625 -86.40625 C 48.253906 -86.5 48.125 -86.585938 48.125 -86.671875 C 47.6875 -87.191406 47.210938 -87.664062 46.703125 -88.09375 L 46.4375 -88.09375 C 46.351562 -88.09375 46.269531 -88.132812 46.1875 -88.21875 C 45.75 -88.5625 44.925781 -88.734375 43.71875 -88.734375 C 43.03125 -88.734375 42.515625 -88.644531 42.171875 -88.46875 C 41.828125 -88.300781 41.566406 -88.175781 41.390625 -88.09375 C 40.703125 -87.570312 40.316406 -87.226562 40.234375 -87.0625 C 39.972656 -86.800781 39.800781 -86.582031 39.71875 -86.40625 C 39.625 -86.238281 39.578125 -86.113281 39.578125 -86.03125 C 39.328125 -85.507812 39.203125 -85.179688 39.203125 -85.046875 C 39.203125 -84.921875 39.15625 -84.726562 39.0625 -84.46875 C 38.976562 -84.382812 38.9375 -84.300781 38.9375 -84.21875 C 38.851562 -84.125 38.8125 -84.035156 38.8125 -83.953125 L 38.8125 -79.5625 C 38.71875 -79.300781 38.671875 -78.953125 38.671875 -78.515625 C 38.585938 -78.171875 38.503906 -77.78125 38.421875 -77.34375 C 38.335938 -76.914062 38.296875 -76.488281 38.296875 -76.0625 C 38.035156 -75.289062 37.796875 -74.492188 37.578125 -73.671875 C 37.359375 -72.847656 37.164062 -72.003906 37 -71.140625 C 36.476562 -69.421875 35.957031 -67.695312 35.4375 -65.96875 C 34.925781 -64.25 34.367188 -62.523438 33.765625 -60.796875 C 32.472656 -57.171875 31.265625 -53.679688 30.140625 -50.328125 L 29.625 -49.671875 L 29.109375 -48 L 28.59375 -46.5625 L 28.203125 -45.921875 L 28.203125 -45.796875 L 28.078125 -45.53125 L 27.6875 -45.53125 L 27.6875 -46.046875 L 27.171875 -48.640625 L 27.171875 -48.765625 L 26.640625 -51.875 C 25.953125 -56.269531 25.328125 -60.625 24.765625 -64.9375 C 24.210938 -69.25 23.71875 -73.601562 23.28125 -78 L 22.515625 -83.4375 L 22.25 -86.03125 L 22.25 -87.0625 L 21.984375 -87.453125 L 21.859375 -87.96875 L 21.859375 -88.21875 C 21.859375 -88.394531 21.859375 -88.460938 21.859375 -88.421875 C 21.859375 -88.378906 21.816406 -88.484375 21.734375 -88.734375 L 21.734375 -89.125 C 21.734375 -88.957031 21.6875 -89 21.59375 -89.25 C 21.507812 -89.507812 21.125 -90.03125 20.4375 -90.8125 C 20.269531 -90.8125 20.117188 -90.914062 19.984375 -91.125 C 19.859375 -91.34375 19.625 -91.582031 19.28125 -91.84375 C 18.84375 -92.269531 18.128906 -92.484375 17.140625 -92.484375 C 16.148438 -92.484375 14.578125 -92.007812 12.421875 -91.0625 C 11.898438 -90.207031 11.550781 -89.648438 11.375 -89.390625 C 11.207031 -89.128906 11.125 -89 11.125 -89 C 11.125 -89 11.144531 -89.019531 11.1875 -89.0625 C 11.226562 -89.101562 11.207031 -88.992188 11.125 -88.734375 C 11.125 -88.648438 11.101562 -88.566406 11.0625 -88.484375 C 11.019531 -88.398438 11 -88.3125 11 -88.21875 C 10.90625 -88.132812 10.859375 -88.050781 10.859375 -87.96875 L 10.859375 -87.453125 L 10.734375 -87.1875 L 10.734375 -85.640625 L 11.125 -80.078125 L 11.125 -75.03125 C 10.863281 -71.582031 10.453125 -68.109375 9.890625 -64.609375 C 9.335938 -61.117188 8.800781 -57.5625 8.28125 -53.9375 C 7.25 -46.695312 6.363281 -39.648438 5.625 -32.796875 C 4.894531 -25.941406 4.742188 -19.453125 5.171875 -13.328125 C 5.691406 -7.804688 6.382812 -4.097656 7.25 -2.203125 C 8.019531 -0.304688 8.625 0.0351562 9.0625 -1.171875 C 9.0625 -1.171875 9.144531 -1.597656 9.3125 -2.453125 C 9.488281 -4.179688 9.679688 -6.640625 9.890625 -9.828125 C 10.109375 -13.023438 10.390625 -16.820312 10.734375 -21.21875 L 11.640625 -21.21875 L 11.640625 -14.625 C 11.640625 -13.84375 11.660156 -13.109375 11.703125 -12.421875 C 11.742188 -11.734375 11.8125 -11.171875 11.90625 -10.734375 C 12.070312 -9.785156 12.238281 -9.09375 12.40625 -8.65625 C 12.582031 -8.226562 12.71875 -7.929688 12.8125 -7.765625 C 12.976562 -7.765625 13.171875 -7.847656 13.390625 -8.015625 C 13.609375 -8.191406 13.800781 -8.34375 13.96875 -8.46875 C 14.144531 -8.601562 14.335938 -8.671875 14.546875 -8.671875 C 14.765625 -8.671875 14.960938 -8.5 15.140625 -8.15625 C 14.878906 -10.21875 14.75 -12.175781 14.75 -14.03125 C 14.75 -15.882812 14.832031 -17.757812 15 -19.65625 C 15.09375 -21.46875 15.222656 -23.300781 15.390625 -25.15625 C 15.566406 -27.007812 15.785156 -28.882812 16.046875 -30.78125 C 16.210938 -32.082031 16.40625 -33.398438 16.625 -34.734375 C 16.84375 -36.066406 17.078125 -37.378906 17.328125 -38.671875 L 17.328125 -39.84375 C 17.765625 -38.113281 18.21875 -36.300781 18.6875 -34.40625 C 19.164062 -32.507812 19.664062 -30.828125 20.1875 -29.359375 Z M 31.4375 -12.03125 C 31.351562 -12.03125 31.3125 -11.898438 31.3125 -11.640625 C 31.21875 -11.816406 31.128906 -11.945312 31.046875 -12.03125 C 30.960938 -12.113281 30.875 -12.242188 30.78125 -12.421875 C 30.695312 -12.335938 30.632812 -12.25 30.59375 -12.15625 C 30.550781 -12.070312 30.441406 -12.03125 30.265625 -12.03125 L 31.3125 -10.734375 C 31.3125 -10.816406 31.351562 -10.859375 31.4375 -10.859375 Z M 34.671875 -19.140625 C 34.835938 -19.484375 34.984375 -19.828125 35.109375 -20.171875 C 35.242188 -20.523438 35.398438 -20.914062 35.578125 -21.34375 L 35.578125 -22.375 C 35.398438 -22.03125 35.242188 -21.640625 35.109375 -21.203125 C 34.984375 -20.773438 34.835938 -20.347656 34.671875 -19.921875 Z M 47.734375 7.5 C 47.910156 7.238281 48 6.9375 48 6.59375 C 48 6.25 48.039062 5.90625 48.125 5.5625 C 47.863281 6.082031 47.625 6.597656 47.40625 7.109375 C 47.195312 7.628906 46.960938 8.101562 46.703125 8.53125 L 46.703125 10.09375 C 46.867188 9.65625 47.035156 9.242188 47.203125 8.859375 C 47.378906 8.472656 47.554688 8.019531 47.734375 7.5 Z M 50.703125 -0.265625 C 50.535156 -0.265625 50.453125 -0.238281 50.453125 -0.1875 C 50.453125 -0.144531 50.410156 -0.125 50.328125 -0.125 C 50.410156 0.0390625 50.535156 0.171875 50.703125 0.265625 Z M 51.21875 -0.640625 C 51.050781 -0.390625 50.96875 -0.15625 50.96875 0.0625 C 50.96875 0.28125 50.925781 0.519531 50.84375 0.78125 C 50.925781 0.78125 50.96875 0.800781 50.96875 0.84375 C 50.96875 0.882812 51.050781 0.90625 51.21875 0.90625 Z M 42.4375 -57.046875 C 42.4375 -57.304688 42.519531 -57.476562 42.6875 -57.5625 L 42.6875 -56.015625 C 42.6875 -55.929688 42.644531 -55.84375 42.5625 -55.75 C 42.476562 -55.664062 42.4375 -55.582031 42.4375 -55.5 Z M 25.21875 -20.828125 C 24.707031 -21.597656 24.28125 -22.367188 23.9375 -23.140625 C 23.59375 -23.921875 23.203125 -24.660156 22.765625 -25.359375 C 22.335938 -26.128906 21.925781 -26.945312 21.53125 -27.8125 C 21.144531 -28.675781 20.695312 -29.664062 20.1875 -30.78125 C 19.75 -31.820312 19.398438 -32.988281 19.140625 -34.28125 C 18.878906 -35.570312 18.578125 -36.820312 18.234375 -38.03125 C 18.148438 -38.550781 18.066406 -39.066406 17.984375 -39.578125 C 17.898438 -40.097656 17.769531 -40.660156 17.59375 -41.265625 C 17.769531 -41.953125 17.859375 -42.640625 17.859375 -43.328125 L 18.109375 -42.296875 C 18.285156 -41.691406 18.414062 -41.085938 18.5 -40.484375 C 18.582031 -39.878906 18.710938 -39.273438 18.890625 -38.671875 C 19.148438 -37.554688 19.429688 -36.394531 19.734375 -35.1875 C 20.035156 -33.976562 20.398438 -32.859375 20.828125 -31.828125 C 21.171875 -30.785156 21.515625 -29.851562 21.859375 -29.03125 C 22.203125 -28.21875 22.59375 -27.421875 23.03125 -26.640625 C 23.457031 -25.867188 23.84375 -25.140625 24.1875 -24.453125 C 24.53125 -23.765625 24.960938 -23.03125 25.484375 -22.25 L 26 -20.953125 L 26.265625 -20.3125 L 26.515625 -19.921875 C 26.515625 -19.921875 26.554688 -19.878906 26.640625 -19.796875 C 26.816406 -19.796875 26.96875 -19.726562 27.09375 -19.59375 C 27.226562 -19.46875 27.378906 -19.363281 27.546875 -19.28125 L 27.6875 -19.140625 C 27.6875 -19.054688 27.726562 -18.972656 27.8125 -18.890625 C 28.5 -20.347656 29.101562 -21.8125 29.625 -23.28125 C 30.144531 -24.75 30.75 -26.21875 31.4375 -27.6875 C 31.863281 -28.71875 32.269531 -29.75 32.65625 -30.78125 C 33.050781 -31.820312 33.460938 -32.859375 33.890625 -33.890625 L 34.671875 -36.09375 L 35.703125 -38.671875 L 36.734375 -41.78125 L 38.8125 -46.5625 C 39.070312 -47.601562 39.375 -48.597656 39.71875 -49.546875 C 40.0625 -50.492188 40.40625 -51.441406 40.75 -52.390625 C 40.75 -52.128906 40.769531 -51.847656 40.8125 -51.546875 C 40.851562 -51.242188 40.875 -50.960938 40.875 -50.703125 C 40.613281 -50.015625 40.332031 -49.28125 40.03125 -48.5 C 39.726562 -47.726562 39.453125 -46.910156 39.203125 -46.046875 L 37.25 -40.875 L 35.703125 -36.875 L 34.671875 -33.890625 L 34.28125 -32.734375 C 33.757812 -31.523438 33.257812 -30.359375 32.78125 -29.234375 C 32.3125 -28.109375 31.863281 -26.988281 31.4375 -25.875 C 30.832031 -24.582031 30.269531 -23.285156 29.75 -21.984375 C 29.226562 -20.691406 28.710938 -19.359375 28.203125 -17.984375 C 28.117188 -17.804688 28.078125 -17.648438 28.078125 -17.515625 C 28.078125 -17.390625 27.988281 -17.242188 27.8125 -17.078125 C 27.632812 -17.160156 27.523438 -17.265625 27.484375 -17.390625 C 27.441406 -17.523438 27.335938 -17.632812 27.171875 -17.71875 C 27.078125 -17.976562 26.859375 -18.195312 26.515625 -18.375 L 26.515625 -18.625 L 26.265625 -18.890625 L 26 -19.65625 Z M 40.75 -82.40625 L 40.625 -82.40625 Z M 42.4375 -61.96875 L 42.4375 -60.796875 Z M 41.78125 -82.796875 L 41.390625 -82.796875 Z M 39.84375 -82.40625 L 39.578125 -82.265625 Z M 39.328125 -72.828125 C 39.066406 -71.703125 38.765625 -70.554688 38.421875 -69.390625 C 38.078125 -68.234375 37.6875 -67.050781 37.25 -65.84375 C 36.394531 -63.425781 35.554688 -60.988281 34.734375 -58.53125 C 33.910156 -56.070312 33.066406 -53.679688 32.203125 -51.359375 C 33.066406 -53.773438 33.910156 -56.207031 34.734375 -58.65625 C 35.554688 -61.113281 36.394531 -63.597656 37.25 -66.109375 C 37.6875 -67.304688 38.054688 -68.488281 38.359375 -69.65625 C 38.660156 -70.820312 38.984375 -72.050781 39.328125 -73.34375 C 39.328125 -73.601562 39.367188 -73.863281 39.453125 -74.125 C 39.535156 -74.382812 39.664062 -74.6875 39.84375 -75.03125 L 39.84375 -74.765625 C 39.757812 -73.992188 39.585938 -73.347656 39.328125 -72.828125 Z M 40.234375 -76.453125 C 40.140625 -76.191406 40.050781 -75.929688 39.96875 -75.671875 C 39.882812 -75.410156 39.84375 -75.15625 39.84375 -74.90625 L 39.84375 -75.28125 C 39.84375 -75.625 39.882812 -75.988281 39.96875 -76.375 C 40.050781 -76.769531 40.140625 -77.140625 40.234375 -77.484375 C 40.234375 -77.222656 40.273438 -77.050781 40.359375 -76.96875 C 40.273438 -76.882812 40.234375 -76.710938 40.234375 -76.453125 Z M 48.765625 -82.796875 L 49.03125 -82.65625 L 48.125 -82.796875 Z M 48.25 -73.859375 C 48.164062 -73.773438 48.125 -73.601562 48.125 -73.34375 C 48.125 -73.175781 48.144531 -73.003906 48.1875 -72.828125 C 48.226562 -72.660156 48.25 -72.488281 48.25 -72.3125 L 49.03125 -56.40625 C 48.851562 -59.070312 48.722656 -61.695312 48.640625 -64.28125 C 48.554688 -66.875 48.425781 -69.460938 48.25 -72.046875 Z M 48 -76.453125 C 48.082031 -76.109375 48.125 -75.738281 48.125 -75.34375 C 48.125 -74.957031 48.125 -74.632812 48.125 -74.375 L 48.125 -74 C 48.039062 -74.425781 48 -74.789062 48 -75.09375 C 48 -75.394531 48 -75.675781 48 -75.9375 Z M 31.171875 -30.265625 C 31.171875 -30.609375 31.257812 -30.78125 31.4375 -30.78125 C 31.945312 -32.164062 32.460938 -33.585938 32.984375 -35.046875 C 33.503906 -36.515625 34.066406 -37.984375 34.671875 -39.453125 C 34.671875 -39.628906 34.753906 -39.757812 34.921875 -39.84375 L 35.703125 -42.171875 L 36.484375 -44.375 L 37.640625 -47.734375 C 38.160156 -49.203125 38.675781 -50.644531 39.1875 -52.0625 C 39.707031 -53.488281 40.226562 -54.976562 40.75 -56.53125 L 40.75 -55.625 C 40.3125 -54.675781 39.941406 -53.726562 39.640625 -52.78125 C 39.347656 -51.832031 39.023438 -50.835938 38.671875 -49.796875 L 37.125 -45.921875 L 35.703125 -41.78125 L 35.578125 -41.65625 C 35.140625 -40.707031 34.835938 -39.890625 34.671875 -39.203125 C 34.066406 -37.816406 33.503906 -36.410156 32.984375 -34.984375 C 32.460938 -33.566406 31.945312 -32.164062 31.4375 -30.78125 C 31.257812 -30.78125 31.171875 -30.609375 31.171875 -30.265625 Z M 41.78125 -82.921875 L 41.78125 -82.796875 Z M 40.75 -82.40625 L 40.625 -82.40625 Z M 40.75 -82.40625 "/></g></g></g></g><g fill="#ffffff" fill-opacity="1"><g transform="translate(60.456393, 102.291093)"><g><path d="M 43.078125 -69.859375 C 43.597656 -69.078125 44.09375 -68.296875 44.5625 -67.515625 C 45.039062 -66.742188 45.492188 -65.972656 45.921875 -65.203125 C 47.304688 -62.265625 48.320312 -59.195312 48.96875 -56 C 49.613281 -52.8125 49.804688 -49.582031 49.546875 -46.3125 C 49.285156 -43.03125 48.570312 -39.835938 47.40625 -36.734375 C 46.238281 -33.628906 44.707031 -30.828125 42.8125 -28.328125 C 41.601562 -26.609375 40.007812 -24.84375 38.03125 -23.03125 C 38.71875 -22.164062 39.273438 -21.320312 39.703125 -20.5 C 40.140625 -19.6875 40.570312 -18.929688 41 -18.234375 C 41.695312 -17.023438 42.390625 -15.6875 43.078125 -14.21875 C 43.765625 -12.757812 44.453125 -11.296875 45.140625 -9.828125 C 45.835938 -8.109375 46.398438 -6.554688 46.828125 -5.171875 C 47.253906 -3.796875 47.46875 -2.632812 47.46875 -1.6875 C 47.46875 -1.34375 47.445312 -0.65625 47.40625 0.375 C 47.363281 1.414062 46.910156 2.367188 46.046875 3.234375 C 45.960938 3.492188 45.789062 3.664062 45.53125 3.75 C 45.613281 6.9375 44.925781 9.222656 43.46875 10.609375 C 42.945312 11.128906 42.34375 11.5625 41.65625 11.90625 C 40.96875 12.25 40.191406 12.421875 39.328125 12.421875 C 37.335938 12.421875 35.441406 11.425781 33.640625 9.4375 C 33.640625 9.4375 33.550781 9.351562 33.375 9.1875 L 32.078125 7.25 C 31.992188 7.15625 31.882812 7.019531 31.75 6.84375 C 31.625 6.675781 31.5625 6.507812 31.5625 6.34375 C 31.394531 6.25 31.265625 6.140625 31.171875 6.015625 C 31.085938 5.890625 31.003906 5.78125 30.921875 5.6875 C 30.578125 5.175781 30.226562 4.660156 29.875 4.140625 C 29.53125 3.617188 29.226562 3.101562 28.96875 2.59375 C 28.625 3.101562 28.128906 3.570312 27.484375 4 C 26.835938 4.4375 26.128906 4.65625 25.359375 4.65625 C 25.097656 4.832031 24.75 4.960938 24.3125 5.046875 C 23.882812 5.128906 23.457031 5.171875 23.03125 5.171875 C 21.726562 6.984375 20.003906 7.890625 17.859375 7.890625 C 17.160156 7.890625 16.117188 7.585938 14.734375 6.984375 C 13.359375 6.378906 12.15625 4.957031 11.125 2.71875 C 10.945312 2.375 10.835938 2.070312 10.796875 1.8125 C 10.753906 1.550781 10.648438 1.289062 10.484375 1.03125 C 10.046875 0.601562 9.609375 0.109375 9.171875 -0.453125 C 8.742188 -1.015625 8.359375 -1.726562 8.015625 -2.59375 C 7.242188 -4.394531 6.660156 -6.242188 6.265625 -8.140625 C 5.878906 -10.046875 5.515625 -12.03125 5.171875 -14.09375 C 4.910156 -15.476562 4.648438 -16.796875 4.390625 -18.046875 C 4.140625 -19.296875 3.882812 -20.523438 3.625 -21.734375 C 2.9375 -24.234375 2.375 -26.691406 1.9375 -29.109375 C 1.507812 -31.523438 1.207031 -33.984375 1.03125 -36.484375 C 1.03125 -37.597656 0.988281 -38.738281 0.90625 -39.90625 C 0.820312 -41.070312 0.691406 -42.210938 0.515625 -43.328125 C 0.347656 -45.660156 0.175781 -47.988281 0 -50.3125 C -0.175781 -52.644531 -0.175781 -54.976562 0 -57.3125 L 0 -59.640625 C -0.257812 -60.929688 -0.390625 -62.09375 -0.390625 -63.125 C -0.992188 -63.125 -1.378906 -63.164062 -1.546875 -63.25 C -3.273438 -63.6875 -4.613281 -64.722656 -5.5625 -66.359375 C -5.644531 -66.796875 -5.769531 -67.226562 -5.9375 -67.65625 C -6.113281 -68.082031 -6.160156 -68.515625 -6.078125 -68.953125 C -7.460938 -69.722656 -8.367188 -70.671875 -8.796875 -71.796875 C -9.484375 -73.347656 -9.394531 -75.03125 -8.53125 -76.84375 C -7.5 -78.820312 -5.691406 -80.675781 -3.109375 -82.40625 C -1.460938 -83.519531 0.21875 -84.488281 1.9375 -85.3125 C 3.664062 -86.132812 5.519531 -86.757812 7.5 -87.1875 C 11.988281 -88.132812 16.472656 -88.222656 20.953125 -87.453125 C 23.191406 -87.015625 25.410156 -86.253906 27.609375 -85.171875 C 29.816406 -84.097656 31.828125 -82.785156 33.640625 -81.234375 C 37.347656 -78.304688 40.320312 -74.726562 42.5625 -70.5 C 42.726562 -70.414062 42.832031 -70.304688 42.875 -70.171875 C 42.925781 -70.046875 42.992188 -69.941406 43.078125 -69.859375 Z M 8.15625 -22.890625 C 8.925781 -19.785156 9.546875 -16.550781 10.015625 -13.1875 C 10.492188 -9.832031 11.253906 -6.945312 12.296875 -4.53125 C 12.722656 -3.582031 13.128906 -2.929688 13.515625 -2.578125 C 13.898438 -2.234375 14.3125 -2.0625 14.75 -2.0625 C 14.914062 -2.0625 15.085938 -2.191406 15.265625 -2.453125 C 15.785156 -2.710938 16.238281 -3.273438 16.625 -4.140625 C 17.007812 -5.003906 17.203125 -6.039062 17.203125 -7.25 L 18.234375 -7.375 C 18.328125 -6.164062 18.523438 -5.410156 18.828125 -5.109375 C 19.128906 -4.804688 19.472656 -4.675781 19.859375 -4.71875 C 20.242188 -4.757812 20.609375 -4.890625 20.953125 -5.109375 C 21.296875 -5.328125 21.597656 -5.390625 21.859375 -5.296875 C 21.691406 -6.421875 21.5625 -7.539062 21.46875 -8.65625 C 21.382812 -9.78125 21.34375 -10.945312 21.34375 -12.15625 L 20.953125 -14.484375 C 20.609375 -16.035156 20.304688 -17.5 20.046875 -18.875 C 19.785156 -20.257812 19.53125 -21.644531 19.28125 -23.03125 C 19.707031 -22.9375 20.394531 -22.546875 21.34375 -21.859375 C 20.394531 -22.546875 19.707031 -22.9375 19.28125 -23.03125 L 19.28125 -23.9375 L 19.40625 -23.671875 C 19.832031 -23.585938 20.257812 -23.4375 20.6875 -23.21875 C 21.125 -23 21.601562 -22.71875 22.125 -22.375 L 21.609375 -21.46875 C 22.296875 -20.863281 22.960938 -20.046875 23.609375 -19.015625 C 24.253906 -17.984375 24.921875 -16.863281 25.609375 -15.65625 C 26.296875 -14.445312 26.898438 -13.171875 27.421875 -11.828125 C 27.941406 -10.492188 28.414062 -9.140625 28.84375 -7.765625 C 29.1875 -6.722656 29.59375 -5.726562 30.0625 -4.78125 C 30.539062 -3.832031 31.039062 -2.972656 31.5625 -2.203125 C 31.476562 -3.148438 31.347656 -4.007812 31.171875 -4.78125 C 31.003906 -5.5625 30.789062 -6.382812 30.53125 -7.25 C 30.007812 -8.882812 29.46875 -10.5 28.90625 -12.09375 C 28.351562 -13.6875 27.6875 -15.257812 26.90625 -16.8125 C 26.90625 -16.988281 26.882812 -17.097656 26.84375 -17.140625 C 26.800781 -17.179688 26.78125 -17.242188 26.78125 -17.328125 C 26.6875 -17.503906 26.597656 -17.613281 26.515625 -17.65625 C 26.429688 -17.695312 26.390625 -17.765625 26.390625 -17.859375 C 25.179688 -20.441406 23.671875 -22.378906 21.859375 -23.671875 C 21.335938 -24.015625 20.992188 -24.273438 20.828125 -24.453125 C 21.953125 -23.847656 22.859375 -23.15625 23.546875 -22.375 C 24.148438 -21.769531 24.664062 -21.125 25.09375 -20.4375 C 25.53125 -19.75 25.960938 -19.0625 26.390625 -18.375 C 26.554688 -18.03125 26.726562 -17.726562 26.90625 -17.46875 C 27.082031 -17.207031 27.253906 -16.90625 27.421875 -16.5625 C 27.597656 -16.300781 27.726562 -16.128906 27.8125 -16.046875 C 28.414062 -14.742188 28.929688 -13.507812 29.359375 -12.34375 C 29.796875 -11.1875 30.1875 -10.003906 30.53125 -8.796875 C 31.300781 -6.640625 31.945312 -4.523438 32.46875 -2.453125 L 32.59375 -0.90625 L 33.890625 0.640625 L 34.015625 0.90625 C 34.109375 0.988281 34.238281 1.09375 34.40625 1.21875 C 34.582031 1.351562 34.753906 1.460938 34.921875 1.546875 C 35.617188 2.148438 36.242188 2.300781 36.796875 2 C 37.359375 1.695312 37.597656 0.554688 37.515625 -1.421875 C 37.429688 -1.679688 37.34375 -1.984375 37.25 -2.328125 C 37.164062 -2.671875 37.082031 -3.015625 37 -3.359375 C 36.820312 -3.703125 36.691406 -4.132812 36.609375 -4.65625 C 36.953125 -5.082031 37.425781 -5.210938 38.03125 -5.046875 C 37.601562 -6.515625 37.148438 -8.023438 36.671875 -9.578125 C 36.203125 -11.128906 35.617188 -12.679688 34.921875 -14.234375 C 34.753906 -14.492188 34.671875 -14.75 34.671875 -15 C 34.671875 -15.257812 34.582031 -15.519531 34.40625 -15.78125 C 34.238281 -15.957031 34.15625 -16.171875 34.15625 -16.421875 C 34.15625 -16.679688 34.066406 -16.898438 33.890625 -17.078125 C 33.023438 -18.972656 31.90625 -20.957031 30.53125 -23.03125 C 30.269531 -23.539062 29.96875 -24.03125 29.625 -24.5 C 29.28125 -24.976562 28.890625 -25.476562 28.453125 -26 C 28.890625 -25.570312 29.28125 -25.097656 29.625 -24.578125 C 29.96875 -24.054688 30.269531 -23.539062 30.53125 -23.03125 C 31.21875 -22.164062 31.84375 -21.234375 32.40625 -20.234375 C 32.96875 -19.242188 33.460938 -18.273438 33.890625 -17.328125 L 34.671875 -15.78125 C 34.671875 -15.695312 34.710938 -15.566406 34.796875 -15.390625 C 34.878906 -15.222656 34.921875 -15.09375 34.921875 -15 C 35.617188 -13.28125 36.265625 -11.578125 36.859375 -9.890625 C 37.460938 -8.210938 38.023438 -6.507812 38.546875 -4.78125 C 38.890625 -4.78125 39.144531 -4.890625 39.3125 -5.109375 C 39.488281 -5.328125 39.492188 -5.867188 39.328125 -6.734375 C 39.328125 -8.109375 38.632812 -10.257812 37.25 -13.1875 C 37 -14.144531 36.65625 -15.097656 36.21875 -16.046875 C 35.789062 -16.992188 35.359375 -17.851562 34.921875 -18.625 C 34.753906 -18.96875 34.582031 -19.289062 34.40625 -19.59375 C 34.238281 -19.894531 34.066406 -20.265625 33.890625 -20.703125 C 33.722656 -20.785156 33.640625 -20.890625 33.640625 -21.015625 C 33.640625 -21.148438 33.59375 -21.257812 33.5 -21.34375 C 33.070312 -22.125 32.640625 -22.898438 32.203125 -23.671875 C 31.773438 -24.453125 31.21875 -25.226562 30.53125 -26 C 30.269531 -26.519531 29.921875 -27.015625 29.484375 -27.484375 C 29.054688 -27.960938 28.628906 -28.414062 28.203125 -28.84375 C 28.628906 -29.28125 29.035156 -29.648438 29.421875 -29.953125 C 29.816406 -30.253906 30.1875 -30.578125 30.53125 -30.921875 C 31.738281 -31.953125 32.859375 -33.070312 33.890625 -34.28125 C 34.066406 -34.445312 34.238281 -34.617188 34.40625 -34.796875 C 34.582031 -34.972656 34.753906 -35.1875 34.921875 -35.4375 C 35.097656 -35.613281 35.25 -35.785156 35.375 -35.953125 C 35.507812 -36.128906 35.617188 -36.304688 35.703125 -36.484375 C 39.066406 -41.140625 41.007812 -46.3125 41.53125 -52 C 41.78125 -54.675781 41.644531 -57.414062 41.125 -60.21875 C 40.613281 -63.019531 39.671875 -65.710938 38.296875 -68.296875 C 37.347656 -70.023438 36.269531 -71.6875 35.0625 -73.28125 C 33.851562 -74.875 32.425781 -76.316406 30.78125 -77.609375 C 29.320312 -78.816406 27.707031 -79.832031 25.9375 -80.65625 C 24.164062 -81.476562 22.332031 -82.0625 20.4375 -82.40625 C 20.351562 -82.488281 20.179688 -82.53125 19.921875 -82.53125 C 16.035156 -83.394531 12.238281 -83.351562 8.53125 -82.40625 C 6.8125 -82.0625 5.195312 -81.539062 3.6875 -80.84375 C 2.175781 -80.15625 0.773438 -79.425781 -0.515625 -78.65625 C -1.546875 -77.875 -2.34375 -77.140625 -2.90625 -76.453125 C -3.46875 -75.765625 -3.878906 -75.203125 -4.140625 -74.765625 C -4.484375 -73.992188 -4.484375 -73.5625 -4.140625 -73.46875 C -4.054688 -73.382812 -3.882812 -73.257812 -3.625 -73.09375 C -2.9375 -73 -1.816406 -73.164062 -0.265625 -73.59375 C 1.285156 -74.03125 3.140625 -74.550781 5.296875 -75.15625 L 5.6875 -74.515625 C 4.65625 -74.078125 3.859375 -73.6875 3.296875 -73.34375 C 2.734375 -73 2.238281 -72.65625 1.8125 -72.3125 C 1.289062 -71.882812 1.078125 -71.410156 1.171875 -70.890625 C 1.335938 -70.628906 1.613281 -70.390625 2 -70.171875 C 2.394531 -69.960938 2.59375 -69.6875 2.59375 -69.34375 C 3.707031 -70.113281 5.085938 -70.800781 6.734375 -71.40625 C 8.367188 -72.007812 9.789062 -72.3125 11 -72.3125 C 11.769531 -72.488281 12.5 -72.488281 13.1875 -72.3125 L 14.234375 -72.3125 C 14.578125 -72.394531 14.921875 -72.394531 15.265625 -72.3125 L 16.6875 -72.3125 C 20.738281 -71.789062 23.972656 -69.976562 26.390625 -66.875 C 26.554688 -66.707031 26.703125 -66.535156 26.828125 -66.359375 C 26.960938 -66.191406 27.160156 -65.976562 27.421875 -65.71875 L 28.96875 -62.609375 C 30.269531 -59.328125 30.75 -56.050781 30.40625 -52.78125 C 30.226562 -51.394531 29.988281 -50.097656 29.6875 -48.890625 C 29.382812 -47.691406 28.972656 -46.53125 28.453125 -45.40625 C 27.679688 -43.425781 26.648438 -41.742188 25.359375 -40.359375 C 25.097656 -40.015625 24.816406 -39.710938 24.515625 -39.453125 C 24.210938 -39.191406 23.929688 -38.890625 23.671875 -38.546875 C 23.066406 -38.023438 22.484375 -37.503906 21.921875 -36.984375 C 21.359375 -36.472656 20.734375 -36.003906 20.046875 -35.578125 C 19.273438 -35.054688 18.242188 -34.535156 16.953125 -34.015625 C 16.691406 -36.003906 16.410156 -38.007812 16.109375 -40.03125 C 15.804688 -42.0625 15.523438 -44.066406 15.265625 -46.046875 C 15.085938 -47.253906 14.957031 -48.503906 14.875 -49.796875 C 14.789062 -51.097656 14.707031 -52.394531 14.625 -53.6875 C 14.707031 -52.039062 14.789062 -50.441406 14.875 -48.890625 C 14.957031 -47.335938 15.085938 -45.703125 15.265625 -43.984375 C 15.429688 -42.347656 15.644531 -40.6875 15.90625 -39 C 16.164062 -37.320312 16.425781 -35.617188 16.6875 -33.890625 C 16.507812 -33.804688 16.378906 -33.765625 16.296875 -33.765625 C 16.210938 -33.765625 16.082031 -33.675781 15.90625 -33.5 C 15.738281 -34.28125 15.609375 -35.035156 15.515625 -35.765625 C 15.429688 -36.503906 15.347656 -37.257812 15.265625 -38.03125 C 15.085938 -40.007812 14.9375 -41.945312 14.8125 -43.84375 C 14.6875 -45.75 14.492188 -47.648438 14.234375 -49.546875 C 14.140625 -50.234375 14.050781 -50.921875 13.96875 -51.609375 C 13.882812 -52.304688 13.753906 -53.039062 13.578125 -53.8125 L 14.359375 -53.8125 C 14.359375 -55.363281 14.335938 -56.894531 14.296875 -58.40625 C 14.253906 -59.914062 14.273438 -61.488281 14.359375 -63.125 L 14.359375 -63.640625 C 14.273438 -64.160156 14.144531 -64.613281 13.96875 -65 C 13.800781 -65.382812 13.585938 -65.796875 13.328125 -66.234375 C 12.890625 -63.898438 12.648438 -61.546875 12.609375 -59.171875 C 12.566406 -56.804688 12.632812 -54.457031 12.8125 -52.125 C 12.976562 -49.625 13.191406 -47.164062 13.453125 -44.75 C 13.710938 -42.34375 13.972656 -39.929688 14.234375 -37.515625 C 13.890625 -39.585938 13.539062 -41.703125 13.1875 -43.859375 C 12.84375 -46.015625 12.71875 -48.082031 12.8125 -50.0625 C 12.632812 -52.988281 12.4375 -55.765625 12.21875 -58.390625 C 12.007812 -61.023438 12.117188 -63.640625 12.546875 -66.234375 L 12.671875 -67.140625 C 12.503906 -67.304688 12.351562 -67.453125 12.21875 -67.578125 C 12.09375 -67.710938 11.941406 -67.820312 11.765625 -67.90625 C 11.679688 -68.082031 11.570312 -68.234375 11.4375 -68.359375 C 11.3125 -68.492188 11.164062 -68.644531 11 -68.8125 C 10.476562 -69.070312 9.9375 -69.132812 9.375 -69 C 8.8125 -68.875 8.316406 -68.335938 7.890625 -67.390625 L 7.890625 -65.71875 C 7.460938 -65.539062 7.078125 -65.539062 6.734375 -65.71875 L 6.46875 -65.71875 C 6.289062 -63.726562 6.222656 -61.765625 6.265625 -59.828125 C 6.316406 -57.890625 6.382812 -56.015625 6.46875 -54.203125 C 6.289062 -56.015625 6.160156 -57.890625 6.078125 -59.828125 C 5.992188 -61.765625 5.953125 -63.769531 5.953125 -65.84375 C 5.347656 -66.101562 4.914062 -65.890625 4.65625 -65.203125 C 4.476562 -64.859375 4.367188 -64.335938 4.328125 -63.640625 C 4.285156 -62.953125 4.304688 -62.21875 4.390625 -61.4375 C 4.484375 -60.664062 4.570312 -59.890625 4.65625 -59.109375 C 4.738281 -58.335938 4.78125 -57.648438 4.78125 -57.046875 C 4.613281 -53.765625 4.703125 -50.398438 5.046875 -46.953125 C 5.390625 -43.503906 5.648438 -40.144531 5.828125 -36.875 C 6.171875 -32.207031 6.945312 -27.546875 8.15625 -22.890625 Z M 25.75 -53.171875 C 25.914062 -55.578125 25.695312 -57.644531 25.09375 -59.375 C 24.144531 -60.320312 22.9375 -61.054688 21.46875 -61.578125 C 22.070312 -60.191406 22.375 -58.941406 22.375 -57.828125 L 22.375 -57.4375 C 22.375 -56.144531 22.375 -54.804688 22.375 -53.421875 C 22.375 -52.046875 22.421875 -50.582031 22.515625 -49.03125 L 22.515625 -48.640625 L 22.640625 -48.640625 C 22.640625 -48.035156 22.679688 -47.453125 22.765625 -46.890625 C 22.847656 -46.328125 22.890625 -45.703125 22.890625 -45.015625 C 23.585938 -46.222656 24.191406 -47.515625 24.703125 -48.890625 C 25.222656 -50.273438 25.570312 -51.703125 25.75 -53.171875 Z M 34.921875 -28.328125 L 34.921875 -28.203125 Z M 34.921875 -28.328125 L 34.921875 -28.203125 Z M 16.8125 -33.25 C 16.46875 -33.25 16.164062 -33.160156 15.90625 -32.984375 L 15.90625 -33.375 C 16.164062 -33.375 16.425781 -33.503906 16.6875 -33.765625 C 16.769531 -33.585938 16.8125 -33.414062 16.8125 -33.25 Z M 22.890625 -35.3125 C 24.097656 -36.257812 25.265625 -37.335938 26.390625 -38.546875 C 27.515625 -39.753906 28.503906 -41.003906 29.359375 -42.296875 C 28.585938 -41.003906 27.679688 -39.710938 26.640625 -38.421875 C 25.609375 -37.128906 24.445312 -35.960938 23.15625 -34.921875 C 22.726562 -34.660156 22.273438 -34.378906 21.796875 -34.078125 C 21.316406 -33.785156 20.820312 -33.507812 20.3125 -33.25 L 19.796875 -33.25 C 20.304688 -33.59375 20.820312 -33.914062 21.34375 -34.21875 C 21.863281 -34.519531 22.378906 -34.882812 22.890625 -35.3125 Z M 17.859375 -33.5 C 17.765625 -33.414062 17.546875 -33.375 17.203125 -33.375 C 17.203125 -33.457031 17.160156 -33.539062 17.078125 -33.625 C 16.992188 -33.71875 16.953125 -33.804688 16.953125 -33.890625 C 17.296875 -33.890625 17.550781 -33.929688 17.71875 -34.015625 C 18.238281 -34.273438 18.800781 -34.597656 19.40625 -34.984375 C 20.007812 -35.378906 20.566406 -35.75 21.078125 -36.09375 C 21.515625 -36.519531 21.945312 -36.882812 22.375 -37.1875 C 22.8125 -37.488281 23.242188 -37.8125 23.671875 -38.15625 C 24.273438 -38.851562 24.832031 -39.5 25.34375 -40.09375 C 25.863281 -40.695312 26.382812 -41.300781 26.90625 -41.90625 C 27.082031 -42.164062 27.234375 -42.40625 27.359375 -42.625 C 27.484375 -42.84375 27.632812 -43.078125 27.8125 -43.328125 C 28.9375 -45.234375 29.753906 -47.175781 30.265625 -49.15625 C 30.960938 -52.09375 31.050781 -54.851562 30.53125 -57.4375 C 30.695312 -57.351562 30.820312 -57.285156 30.90625 -57.234375 C 31 -57.191406 31.046875 -57.300781 31.046875 -57.5625 C 31.566406 -54.800781 31.566406 -51.957031 31.046875 -49.03125 C 30.703125 -47.738281 30.25 -46.460938 29.6875 -45.203125 C 29.125 -43.953125 28.367188 -42.769531 27.421875 -41.65625 C 26.898438 -40.875 26.382812 -40.226562 25.875 -39.71875 C 25.613281 -39.375 25.3125 -38.984375 24.96875 -38.546875 C 24.625 -38.117188 24.234375 -37.773438 23.796875 -37.515625 C 23.367188 -37.171875 22.984375 -36.867188 22.640625 -36.609375 C 22.296875 -36.347656 21.90625 -36.085938 21.46875 -35.828125 C 20.863281 -35.398438 20.257812 -35.015625 19.65625 -34.671875 C 19.050781 -34.328125 18.453125 -33.9375 17.859375 -33.5 Z M 25.359375 -28.84375 L 25.21875 -28.84375 Z M 6.46875 -54.203125 C 6.644531 -51.785156 6.796875 -49.410156 6.921875 -47.078125 C 7.046875 -44.753906 7.109375 -42.425781 7.109375 -40.09375 C 7.023438 -42.425781 6.941406 -44.773438 6.859375 -47.140625 C 6.773438 -49.515625 6.644531 -51.867188 6.46875 -54.203125 Z M 26.90625 -30.140625 C 27.425781 -30.484375 27.988281 -30.890625 28.59375 -31.359375 C 29.195312 -31.835938 29.753906 -32.296875 30.265625 -32.734375 C 29.753906 -32.296875 29.238281 -31.816406 28.71875 -31.296875 C 28.195312 -30.785156 27.59375 -30.3125 26.90625 -29.875 Z M 26.640625 -27.8125 C 26.992188 -27.46875 27.320312 -27.164062 27.625 -26.90625 C 27.925781 -26.644531 28.203125 -26.34375 28.453125 -26 C 28.203125 -26.34375 27.925781 -26.644531 27.625 -26.90625 C 27.320312 -27.164062 26.992188 -27.425781 26.640625 -27.6875 Z M 26.640625 -27.8125 "/></g></g></g><g fill="#ffffff" fill-opacity="1"><g transform="translate(103.658966, 102.291093)"><g><path d="M 25.21875 -7.25 C 26.257812 -6.382812 27.015625 -5.410156 27.484375 -4.328125 C 27.960938 -3.253906 28.03125 -2.113281 27.6875 -0.90625 C 27.6875 -0.644531 27.597656 -0.34375 27.421875 0 C 27.078125 0.601562 26.796875 1.097656 26.578125 1.484375 C 26.367188 1.867188 26.175781 2.238281 26 2.59375 L 25.75 2.84375 C 25.75 2.925781 25.703125 2.96875 25.609375 2.96875 C 25.179688 3.664062 24.796875 4.289062 24.453125 4.84375 C 24.109375 5.40625 23.765625 5.988281 23.421875 6.59375 C 23.066406 7.195312 22.675781 7.820312 22.25 8.46875 C 21.820312 9.113281 21.347656 9.785156 20.828125 10.484375 L 20.5625 10.859375 C 19.707031 11.816406 18.628906 12.378906 17.328125 12.546875 C 16.722656 12.890625 16.078125 13.0625 15.390625 13.0625 L 15.265625 13.0625 C 13.878906 13.0625 12.710938 12.585938 11.765625 11.640625 C 11.765625 11.640625 11.640625 11.507812 11.390625 11.25 C 11.035156 10.988281 10.664062 10.707031 10.28125 10.40625 C 9.894531 10.101562 9.570312 9.738281 9.3125 9.3125 C 8.019531 8.707031 6.8125 7.863281 5.6875 6.78125 C 4.570312 5.707031 3.84375 4.523438 3.5 3.234375 L 3.5 2.84375 C 3.40625 2.675781 3.359375 2.503906 3.359375 2.328125 C 2.671875 1.640625 2.046875 0.945312 1.484375 0.25 C 0.921875 -0.4375 0.554688 -1.207031 0.390625 -2.0625 C 0.390625 -2.15625 0.367188 -2.222656 0.328125 -2.265625 C 0.285156 -2.304688 0.265625 -2.367188 0.265625 -2.453125 C 0.0859375 -3.835938 0.253906 -4.957031 0.765625 -5.8125 C 1.285156 -6.675781 1.71875 -7.328125 2.0625 -7.765625 C 2.320312 -8.453125 2.6875 -9.179688 3.15625 -9.953125 C 3.632812 -10.734375 4.4375 -11.382812 5.5625 -11.90625 C 5.90625 -12.25 6.207031 -12.503906 6.46875 -12.671875 L 6.59375 -12.8125 C 7.539062 -14.019531 8.835938 -14.625 10.484375 -14.625 L 10.859375 -14.625 C 11.117188 -14.625 11.398438 -14.597656 11.703125 -14.546875 C 12.003906 -14.503906 12.375 -14.441406 12.8125 -14.359375 L 13.0625 -14.359375 C 14.101562 -14.535156 15.222656 -14.578125 16.421875 -14.484375 C 17.628906 -14.398438 18.707031 -14.144531 19.65625 -13.71875 L 19.921875 -13.71875 C 20.097656 -13.539062 20.289062 -13.429688 20.5 -13.390625 C 20.71875 -13.347656 20.910156 -13.238281 21.078125 -13.0625 C 21.078125 -13.0625 21.253906 -12.976562 21.609375 -12.8125 L 21.984375 -12.421875 C 23.796875 -11.128906 24.703125 -9.488281 24.703125 -7.5 C 24.878906 -7.332031 25.050781 -7.25 25.21875 -7.25 Z M 4.921875 -3.109375 C 5.003906 -3.015625 5.066406 -2.925781 5.109375 -2.84375 C 5.148438 -2.757812 5.210938 -2.675781 5.296875 -2.59375 C 5.734375 -1.988281 6.359375 -1.40625 7.171875 -0.84375 C 7.992188 -0.28125 8.707031 0.0390625 9.3125 0.125 L 10.09375 0.640625 C 9.65625 0.816406 9.671875 1.078125 10.140625 1.421875 C 10.617188 1.765625 11.078125 2.15625 11.515625 2.59375 L 12.03125 3.109375 C 12.207031 2.929688 12.378906 2.800781 12.546875 2.71875 C 12.722656 2.632812 13.113281 2.59375 13.71875 2.59375 L 13.96875 2.203125 C 14.40625 1.679688 14.796875 1.140625 15.140625 0.578125 C 15.484375 0.015625 15.828125 -0.566406 16.171875 -1.171875 C 16.597656 -1.765625 16.984375 -2.363281 17.328125 -2.96875 C 17.679688 -3.570312 18.070312 -4.222656 18.5 -4.921875 C 17.8125 -3.972656 17.226562 -3.171875 16.75 -2.515625 C 16.28125 -1.867188 15.828125 -1.160156 15.390625 -0.390625 C 15.222656 -0.554688 15.09375 -0.640625 15 -0.640625 C 15 -1.503906 15.429688 -2.28125 16.296875 -2.96875 C 16.640625 -3.320312 16.941406 -3.671875 17.203125 -4.015625 C 17.460938 -4.359375 17.632812 -4.785156 17.71875 -5.296875 L 18.625 -4.921875 C 18.800781 -5.265625 18.992188 -5.628906 19.203125 -6.015625 C 19.421875 -6.398438 19.660156 -6.851562 19.921875 -7.375 C 20.003906 -7.71875 19.742188 -8.148438 19.140625 -8.671875 C 18.628906 -7.972656 18.175781 -7.363281 17.78125 -6.84375 C 17.394531 -6.332031 17.03125 -5.863281 16.6875 -5.4375 C 16.34375 -5 16.019531 -4.585938 15.71875 -4.203125 C 15.414062 -3.816406 15.09375 -3.40625 14.75 -2.96875 C 14.914062 -3.40625 15.109375 -3.816406 15.328125 -4.203125 C 15.546875 -4.585938 15.867188 -4.910156 16.296875 -5.171875 C 16.734375 -5.609375 17.101562 -6.125 17.40625 -6.71875 C 17.707031 -7.320312 18.070312 -8.015625 18.5 -8.796875 L 18.625 -9.0625 C 18.625 -9.0625 18.453125 -9.144531 18.109375 -9.3125 L 17.984375 -9.3125 C 16.691406 -9.914062 15.351562 -10.046875 13.96875 -9.703125 C 13.882812 -9.617188 13.84375 -9.53125 13.84375 -9.4375 L 13.84375 -9.3125 C 13.320312 -9.488281 12.847656 -9.578125 12.421875 -9.578125 C 12.335938 -9.484375 12.269531 -9.394531 12.21875 -9.3125 C 12.175781 -9.226562 12.070312 -9.144531 11.90625 -9.0625 C 11.8125 -8.882812 11.722656 -8.773438 11.640625 -8.734375 C 11.554688 -8.691406 11.472656 -8.582031 11.390625 -8.40625 C 11.554688 -8.75 11.640625 -8.921875 11.640625 -8.921875 L 12.03125 -9.703125 C 11.601562 -9.785156 11.128906 -9.828125 10.609375 -9.828125 C 10.347656 -9.828125 10.21875 -9.785156 10.21875 -9.703125 C 10.300781 -9.523438 10.300781 -9.394531 10.21875 -9.3125 C 9.613281 -9.144531 9.179688 -8.863281 8.921875 -8.46875 C 8.660156 -8.082031 8.226562 -7.800781 7.625 -7.625 C 7.195312 -7.457031 6.941406 -7.222656 6.859375 -6.921875 C 6.773438 -6.617188 6.644531 -6.253906 6.46875 -5.828125 C 6.289062 -5.304688 5.960938 -4.894531 5.484375 -4.59375 C 5.015625 -4.289062 4.828125 -3.796875 4.921875 -3.109375 Z M 11.390625 -8.40625 C 10.953125 -7.800781 10.300781 -7.328125 9.4375 -6.984375 C 10.132812 -7.328125 10.785156 -7.800781 11.390625 -8.40625 Z M 11.390625 -8.40625 "/></g></g></g><g fill="#ffffff" fill-opacity="1"><g transform="translate(126.812423, 102.291093)"><g><path d="M 59.25 -50.453125 C 60.28125 -43.804688 60.796875 -36.945312 60.796875 -29.875 C 60.878906 -26.34375 60.878906 -22.914062 60.796875 -19.59375 C 60.710938 -16.28125 60.5 -13.023438 60.15625 -9.828125 C 60.15625 -9.660156 60.109375 -9.507812 60.015625 -9.375 C 59.929688 -9.25 59.890625 -9.097656 59.890625 -8.921875 L 59.890625 -8.28125 C 59.804688 -7.757812 59.742188 -7.21875 59.703125 -6.65625 C 59.660156 -6.101562 59.550781 -5.476562 59.375 -4.78125 L 58.734375 0.125 C 58.390625 2.113281 58 4.054688 57.5625 5.953125 C 57.132812 7.847656 56.660156 9.742188 56.140625 11.640625 C 56.140625 11.898438 56.070312 12.160156 55.9375 12.421875 C 55.8125 12.679688 55.707031 12.9375 55.625 13.1875 L 55.5 13.96875 L 54.59375 16.421875 L 52.90625 20.703125 L 49.796875 29.359375 C 49.023438 30.910156 47.691406 31.90625 45.796875 32.34375 L 45.28125 32.34375 C 44.5 32.34375 43.765625 32.144531 43.078125 31.75 C 42.390625 31.363281 41.828125 30.867188 41.390625 30.265625 L 41.140625 29.875 C 40.960938 29.789062 40.789062 29.488281 40.625 28.96875 L 38.296875 25.21875 L 38.15625 25.09375 L 38.03125 24.703125 C 37.851562 24.535156 37.722656 24.382812 37.640625 24.25 C 37.554688 24.125 37.425781 23.972656 37.25 23.796875 L 35.1875 20.046875 L 32.859375 15.78125 C 32.597656 15.519531 32.46875 15.257812 32.46875 15 C 31.945312 14.488281 31.601562 13.800781 31.4375 12.9375 C 31.175781 12.507812 30.914062 11.992188 30.65625 11.390625 C 30.394531 10.785156 30.132812 10.132812 29.875 9.4375 C 29.53125 8.488281 29.144531 7.429688 28.71875 6.265625 C 28.289062 5.109375 27.859375 3.753906 27.421875 2.203125 C 27.078125 1.078125 26.753906 -0.128906 26.453125 -1.421875 C 26.148438 -2.710938 25.785156 -4.132812 25.359375 -5.6875 L 24.1875 -10.484375 L 23.15625 -14.875 C 23.070312 -12.632812 23.070312 -10.5 23.15625 -8.46875 C 23.238281 -6.445312 23.453125 -4.488281 23.796875 -2.59375 C 24.054688 -2.15625 24.1875 -1.765625 24.1875 -1.421875 C 24.1875 -0.210938 23.773438 0.84375 22.953125 1.75 C 22.140625 2.65625 21.128906 3.148438 19.921875 3.234375 C 19.660156 3.578125 19.316406 3.75 18.890625 3.75 C 18.890625 4.4375 18.863281 5.0625 18.8125 5.625 C 18.769531 6.1875 18.664062 6.679688 18.5 7.109375 C 18.070312 8.660156 17.359375 9.738281 16.359375 10.34375 C 15.367188 10.945312 14.398438 11.25 13.453125 11.25 C 11.378906 11.25 9.566406 9.957031 8.015625 7.375 C 7.847656 7.113281 7.65625 6.742188 7.4375 6.265625 C 7.21875 5.796875 6.984375 5.257812 6.734375 4.65625 C 5.953125 3.882812 5.347656 3.066406 4.921875 2.203125 C 4.484375 1.421875 3.921875 0.148438 3.234375 -1.609375 C 2.546875 -3.378906 1.941406 -5.90625 1.421875 -9.1875 C 0.992188 -12.03125 0.671875 -15.023438 0.453125 -18.171875 C 0.234375 -21.316406 0.253906 -24.617188 0.515625 -28.078125 C 0.515625 -31.085938 0.664062 -34.1875 0.96875 -37.375 C 1.269531 -40.570312 1.765625 -44.113281 2.453125 -48 C 2.628906 -49.375 2.800781 -50.769531 2.96875 -52.1875 C 3.144531 -53.613281 3.363281 -55.019531 3.625 -56.40625 C 3.882812 -58.21875 4.140625 -60.070312 4.390625 -61.96875 C 4.648438 -63.863281 4.910156 -65.71875 5.171875 -67.53125 C 5.347656 -68.90625 5.519531 -70.347656 5.6875 -71.859375 C 5.863281 -73.367188 5.953125 -74.859375 5.953125 -76.328125 L 5.6875 -78.390625 L 5.6875 -81.890625 C 5.6875 -82.234375 5.707031 -82.578125 5.75 -82.921875 C 5.800781 -83.265625 5.910156 -83.695312 6.078125 -84.21875 L 6.078125 -84.59375 C 6.335938 -84.851562 6.507812 -85.414062 6.59375 -86.28125 C 6.59375 -86.539062 6.722656 -86.800781 6.984375 -87.0625 L 7.109375 -87.578125 C 7.203125 -87.742188 7.289062 -87.867188 7.375 -87.953125 C 7.457031 -88.046875 7.5 -88.179688 7.5 -88.359375 C 7.582031 -88.359375 7.6875 -88.441406 7.8125 -88.609375 C 7.945312 -88.785156 8.0625 -88.957031 8.15625 -89.125 C 8.320312 -89.300781 8.445312 -89.472656 8.53125 -89.640625 C 8.625 -89.816406 8.800781 -89.988281 9.0625 -90.15625 C 9.144531 -90.332031 9.25 -90.460938 9.375 -90.546875 C 9.507812 -90.640625 9.617188 -90.726562 9.703125 -90.8125 C 9.960938 -91.070312 10.265625 -91.285156 10.609375 -91.453125 C 10.691406 -91.628906 11.035156 -91.800781 11.640625 -91.96875 C 11.898438 -92.3125 12.242188 -92.484375 12.671875 -92.484375 C 13.710938 -93.003906 14.75 -93.265625 15.78125 -93.265625 C 15.863281 -93.347656 16.078125 -93.390625 16.421875 -93.390625 C 17.117188 -93.390625 17.8125 -93.265625 18.5 -93.015625 C 19.363281 -93.015625 20.050781 -92.835938 20.5625 -92.484375 C 20.738281 -92.398438 21.039062 -92.226562 21.46875 -91.96875 C 21.8125 -91.96875 21.984375 -91.882812 21.984375 -91.71875 C 22.160156 -91.539062 22.332031 -91.410156 22.5 -91.328125 C 22.675781 -91.242188 22.851562 -91.113281 23.03125 -90.9375 C 22.9375 -90.9375 23.148438 -90.765625 23.671875 -90.421875 C 23.847656 -90.242188 23.976562 -90.113281 24.0625 -90.03125 C 24.144531 -89.945312 24.226562 -89.863281 24.3125 -89.78125 L 24.578125 -89.640625 C 24.921875 -89.210938 25.15625 -88.890625 25.28125 -88.671875 C 25.414062 -88.460938 25.570312 -88.269531 25.75 -88.09375 L 25.75 -87.828125 C 26 -87.316406 26.210938 -86.800781 26.390625 -86.28125 L 26.640625 -86.28125 C 26.734375 -86.019531 26.78125 -85.820312 26.78125 -85.6875 C 26.78125 -85.5625 26.820312 -85.414062 26.90625 -85.25 C 26.90625 -85.164062 26.992188 -85.078125 27.171875 -84.984375 C 27.253906 -84.816406 27.335938 -84.6875 27.421875 -84.59375 L 27.6875 -84.21875 C 28.289062 -83.519531 28.675781 -83 28.84375 -82.65625 L 28.84375 -82.53125 C 29.101562 -82.1875 29.273438 -81.90625 29.359375 -81.6875 C 29.453125 -81.46875 29.582031 -81.234375 29.75 -80.984375 C 29.832031 -80.722656 29.875 -80.523438 29.875 -80.390625 C 29.875 -80.265625 29.921875 -80.113281 30.015625 -79.9375 C 30.179688 -79.6875 30.304688 -79.429688 30.390625 -79.171875 C 30.484375 -78.910156 30.613281 -78.648438 30.78125 -78.390625 C 31.21875 -77.097656 31.609375 -75.828125 31.953125 -74.578125 C 32.296875 -73.328125 32.597656 -72.097656 32.859375 -70.890625 C 33.203125 -69.679688 33.503906 -68.472656 33.765625 -67.265625 C 34.023438 -66.054688 34.28125 -64.847656 34.53125 -63.640625 C 34.707031 -63.128906 34.859375 -62.65625 34.984375 -62.21875 C 35.117188 -61.789062 35.269531 -61.316406 35.4375 -60.796875 C 35.4375 -60.972656 35.394531 -61.125 35.3125 -61.25 C 35.226562 -61.382812 35.1875 -61.492188 35.1875 -61.578125 C 35.007812 -62.867188 34.921875 -64.117188 34.921875 -65.328125 C 34.921875 -66.535156 35.351562 -67.613281 36.21875 -68.5625 C 36.394531 -68.5625 36.484375 -68.601562 36.484375 -68.6875 C 36.304688 -69.125 36.132812 -69.597656 35.96875 -70.109375 C 35.789062 -70.285156 35.703125 -70.414062 35.703125 -70.5 C 35.703125 -70.582031 35.660156 -70.671875 35.578125 -70.765625 C 34.796875 -74.035156 34.316406 -76.597656 34.140625 -78.453125 C 33.972656 -80.304688 34.796875 -81.835938 36.609375 -83.046875 C 37.035156 -83.222656 37.460938 -83.375 37.890625 -83.5 C 38.328125 -83.632812 38.804688 -83.703125 39.328125 -83.703125 C 41.828125 -83.703125 44.238281 -82.101562 46.5625 -78.90625 L 46.828125 -78.78125 C 47.859375 -77.3125 48.765625 -75.890625 49.546875 -74.515625 C 49.710938 -74.335938 49.796875 -74.207031 49.796875 -74.125 C 49.796875 -74.039062 49.84375 -73.910156 49.9375 -73.734375 L 49.9375 -73.34375 L 50.0625 -73.34375 C 50.488281 -72.65625 50.914062 -71.96875 51.34375 -71.28125 C 51.78125 -70.59375 52.21875 -69.898438 52.65625 -69.203125 C 52.90625 -69.035156 53.03125 -68.820312 53.03125 -68.5625 C 53.125 -68.300781 53.210938 -68.039062 53.296875 -67.78125 C 53.378906 -67.519531 53.46875 -67.265625 53.5625 -67.015625 C 53.726562 -66.835938 53.914062 -66.617188 54.125 -66.359375 C 54.34375 -66.097656 54.5 -65.796875 54.59375 -65.453125 C 56.75 -60.796875 58.300781 -55.796875 59.25 -50.453125 Z M 19.53125 -1.421875 C 19.53125 -1.679688 19.507812 -1.960938 19.46875 -2.265625 C 19.425781 -2.566406 19.40625 -2.847656 19.40625 -3.109375 L 19.40625 -1.546875 Z M 39.328125 17.859375 L 40.625 20.046875 L 41.390625 21.21875 C 41.734375 21.726562 41.992188 22.070312 42.171875 22.25 L 42.296875 21.984375 L 42.296875 21.734375 L 42.4375 21.078125 L 42.953125 19.53125 L 45.40625 13.71875 L 46.4375 11.125 L 46.953125 9.4375 L 47.46875 7.890625 L 47.609375 7.25 C 48.035156 6.300781 48.289062 5.476562 48.375 4.78125 C 48.894531 3.144531 49.367188 1.421875 49.796875 -0.390625 C 50.234375 -2.203125 50.582031 -4.097656 50.84375 -6.078125 L 51.09375 -7.375 L 51.359375 -8.796875 L 51.609375 -10.859375 C 51.785156 -11.378906 51.875 -11.894531 51.875 -12.40625 C 51.875 -12.925781 51.914062 -13.445312 52 -13.96875 C 51.914062 -13.445312 51.875 -12.925781 51.875 -12.40625 C 51.875 -11.894531 51.785156 -11.378906 51.609375 -10.859375 L 51.359375 -8.796875 L 51.09375 -7.25 L 50.84375 -5.828125 C 50.582031 -3.921875 50.210938 -2.082031 49.734375 -0.3125 C 49.265625 1.445312 48.8125 3.144531 48.375 4.78125 L 47.609375 7.25 L 47.46875 7.765625 L 46.828125 9.4375 L 46.4375 10.734375 L 45.28125 13.71875 L 42.953125 19.53125 L 42.4375 21.078125 L 42.296875 21.609375 L 42.171875 21.734375 L 41.90625 21.984375 L 41.65625 21.46875 C 41.476562 21.382812 41.347656 21.128906 41.265625 20.703125 L 40.359375 19.40625 L 39.0625 16.8125 L 36.21875 11.640625 C 35.695312 10.773438 35.222656 9.738281 34.796875 8.53125 C 34.367188 7.332031 33.9375 6.082031 33.5 4.78125 C 33.070312 3.488281 32.660156 2.148438 32.265625 0.765625 C 31.878906 -0.609375 31.472656 -2.03125 31.046875 -3.5 L 29.875 -7.765625 L 29.359375 -10.34375 L 28.203125 -15.140625 L 25.875 -24.703125 C 25.1875 -27.722656 24.492188 -30.804688 23.796875 -33.953125 C 23.109375 -37.097656 22.378906 -40.222656 21.609375 -43.328125 C 21.253906 -45.054688 20.882812 -46.78125 20.5 -48.5 C 20.113281 -50.226562 19.75 -52 19.40625 -53.8125 C 19.226562 -53.988281 19.140625 -54.140625 19.140625 -54.265625 C 19.140625 -54.390625 19.097656 -54.539062 19.015625 -54.71875 C 19.097656 -54.894531 19.140625 -55.066406 19.140625 -55.234375 C 19.140625 -55.410156 19.226562 -55.628906 19.40625 -55.890625 L 19.40625 -56.40625 C 19.832031 -54.59375 20.257812 -52.757812 20.6875 -50.90625 C 21.125 -49.050781 21.554688 -47.21875 21.984375 -45.40625 C 22.847656 -42.039062 23.664062 -38.632812 24.4375 -35.1875 C 25.21875 -31.738281 25.953125 -28.332031 26.640625 -24.96875 L 28.84375 -15.390625 L 29.875 -10.734375 L 30.53125 -8.15625 L 31.5625 -4.015625 C 31.988281 -2.546875 32.375 -1.164062 32.71875 0.125 C 33.070312 1.414062 33.460938 2.710938 33.890625 4.015625 C 34.234375 5.304688 34.640625 6.507812 35.109375 7.625 C 35.585938 8.75 36.046875 9.785156 36.484375 10.734375 L 38.8125 15.515625 L 39.0625 15.78125 L 40.359375 18.375 L 40.875 19.015625 L 41.265625 19.65625 L 41.265625 19.921875 C 41.265625 20.003906 41.304688 20.046875 41.390625 20.046875 L 41.65625 20.1875 L 41.90625 20.703125 C 41.90625 20.609375 41.945312 20.5625 42.03125 20.5625 C 42.125 20.5625 42.171875 20.519531 42.171875 20.4375 C 42.347656 20.175781 42.457031 19.914062 42.5 19.65625 C 42.539062 19.40625 42.644531 19.148438 42.8125 18.890625 C 42.8125 18.628906 42.859375 18.5 42.953125 18.5 L 42.953125 17.984375 C 43.378906 16.941406 43.765625 15.945312 44.109375 15 C 44.453125 14.050781 44.84375 13.101562 45.28125 12.15625 C 45.445312 11.644531 45.640625 11.109375 45.859375 10.546875 C 46.078125 9.984375 46.269531 9.441406 46.4375 8.921875 C 46.519531 8.660156 46.5625 8.441406 46.5625 8.265625 C 46.5625 8.097656 46.648438 7.929688 46.828125 7.765625 C 47.003906 7.421875 47.113281 7.070312 47.15625 6.71875 C 47.195312 6.375 47.300781 6.03125 47.46875 5.6875 L 47.46875 5.296875 C 47.5625 4.953125 47.671875 4.585938 47.796875 4.203125 C 47.929688 3.816406 48.082031 3.40625 48.25 2.96875 C 48.769531 1.25 49.179688 -0.535156 49.484375 -2.390625 C 49.785156 -4.242188 50.109375 -6.164062 50.453125 -8.15625 L 50.578125 -9.3125 L 50.84375 -10.484375 L 50.84375 -12.296875 C 50.925781 -12.804688 50.988281 -13.34375 51.03125 -13.90625 C 51.070312 -14.46875 51.179688 -15.003906 51.359375 -15.515625 L 52.125 -15.515625 C 52.5625 -18.710938 52.820312 -21.945312 52.90625 -25.21875 C 52.988281 -28.5 52.988281 -31.78125 52.90625 -35.0625 C 52.90625 -38.332031 52.773438 -41.601562 52.515625 -44.875 C 52.253906 -48.15625 51.910156 -51.476562 51.484375 -54.84375 C 51.054688 -57.4375 50.515625 -59.851562 49.859375 -62.09375 C 49.210938 -64.332031 48.414062 -66.359375 47.46875 -68.171875 C 47.382812 -68.429688 47.257812 -68.601562 47.09375 -68.6875 C 47.257812 -68.601562 47.34375 -68.472656 47.34375 -68.296875 C 47.34375 -68.128906 47.382812 -67.957031 47.46875 -67.78125 C 48.25 -64.675781 48.875 -61.570312 49.34375 -58.46875 C 49.820312 -55.363281 50.234375 -52.257812 50.578125 -49.15625 C 51.097656 -42.6875 51.359375 -36.003906 51.359375 -29.109375 C 51.179688 -27.460938 51.050781 -25.84375 50.96875 -24.25 C 50.882812 -22.65625 50.753906 -21 50.578125 -19.28125 C 50.492188 -18.414062 50.429688 -17.570312 50.390625 -16.75 C 50.347656 -15.925781 50.238281 -15.039062 50.0625 -14.09375 L 49.796875 -11.765625 L 49.421875 -8.796875 C 49.242188 -7.503906 49.023438 -6.207031 48.765625 -4.90625 C 48.503906 -3.613281 48.25 -2.367188 48 -1.171875 C 47.90625 -0.816406 47.816406 -0.46875 47.734375 -0.125 C 47.648438 0.21875 47.5625 0.601562 47.46875 1.03125 C 47.300781 1.632812 47.128906 2.238281 46.953125 2.84375 C 46.785156 3.445312 46.613281 4.09375 46.4375 4.78125 C 46.351562 4.957031 46.3125 5.085938 46.3125 5.171875 C 46.3125 5.253906 46.222656 5.382812 46.046875 5.5625 C 45.535156 7.03125 45.0625 8.472656 44.625 9.890625 C 44.195312 11.316406 43.640625 12.765625 42.953125 14.234375 C 42.859375 14.660156 42.75 15.085938 42.625 15.515625 C 42.5 15.953125 42.347656 16.382812 42.171875 16.8125 C 41.992188 16.90625 41.90625 16.992188 41.90625 17.078125 L 41.90625 17.46875 L 41.390625 17.46875 L 41.390625 17.328125 C 41.222656 17.328125 41.140625 17.203125 41.140625 16.953125 C 40.960938 16.691406 40.832031 16.453125 40.75 16.234375 C 40.664062 16.015625 40.535156 15.773438 40.359375 15.515625 C 40.097656 15.085938 39.859375 14.65625 39.640625 14.21875 C 39.429688 13.789062 39.238281 13.363281 39.0625 12.9375 L 38.9375 12.8125 C 38.851562 12.8125 38.8125 12.765625 38.8125 12.671875 C 38.46875 11.898438 38.097656 11.101562 37.703125 10.28125 C 37.316406 9.46875 36.953125 8.628906 36.609375 7.765625 C 36.179688 6.816406 35.769531 5.78125 35.375 4.65625 C 34.988281 3.53125 34.582031 2.367188 34.15625 1.171875 C 33.8125 -0.0351562 33.507812 -1.265625 33.25 -2.515625 C 32.988281 -3.765625 32.6875 -4.992188 32.34375 -6.203125 L 31.4375 -9.703125 L 30.78125 -12.03125 L 29.5 -17.078125 L 27.8125 -24.84375 L 27.296875 -26.90625 L 27.8125 -24.96875 L 29.75 -17.203125 L 30.921875 -12.421875 L 32.46875 -6.59375 C 32.726562 -5.382812 33.03125 -4.175781 33.375 -2.96875 C 33.71875 -1.769531 34.101562 -0.566406 34.53125 0.640625 C 34.789062 1.847656 35.113281 3.015625 35.5 4.140625 C 35.894531 5.265625 36.265625 6.300781 36.609375 7.25 C 37.035156 8.101562 37.421875 8.914062 37.765625 9.6875 C 38.117188 10.46875 38.46875 11.289062 38.8125 12.15625 C 38.8125 12.25 38.851562 12.296875 38.9375 12.296875 L 39.0625 12.421875 C 39.320312 12.847656 39.535156 13.273438 39.703125 13.703125 C 39.878906 14.140625 40.097656 14.53125 40.359375 14.875 C 40.535156 15.132812 40.664062 15.367188 40.75 15.578125 C 40.832031 15.796875 40.960938 16.078125 41.140625 16.421875 L 41.265625 16.5625 L 41.390625 16.8125 L 41.78125 16.8125 C 41.78125 16.726562 41.800781 16.6875 41.84375 16.6875 C 41.882812 16.6875 41.90625 16.644531 41.90625 16.5625 L 41.90625 16.421875 C 42.507812 15.128906 42.859375 14.097656 42.953125 13.328125 C 43.203125 12.722656 43.457031 12.160156 43.71875 11.640625 C 43.976562 11.117188 44.195312 10.554688 44.375 9.953125 C 44.71875 8.921875 45.0625 7.929688 45.40625 6.984375 C 45.75 6.035156 46.09375 5.046875 46.4375 4.015625 C 46.4375 3.835938 46.457031 3.679688 46.5 3.546875 C 46.539062 3.421875 46.5625 3.273438 46.5625 3.109375 C 46.738281 2.671875 46.890625 2.191406 47.015625 1.671875 C 47.148438 1.160156 47.300781 0.644531 47.46875 0.125 C 47.5625 -0.382812 47.671875 -0.898438 47.796875 -1.421875 C 47.929688 -1.941406 48.082031 -2.503906 48.25 -3.109375 C 48.332031 -3.617188 48.4375 -4.132812 48.5625 -4.65625 C 48.695312 -5.175781 48.804688 -5.691406 48.890625 -6.203125 L 49.28125 -7.890625 L 49.421875 -9.4375 L 49.796875 -11.90625 L 49.9375 -13.96875 C 50.101562 -14.75 50.207031 -15.523438 50.25 -16.296875 C 50.300781 -17.078125 50.367188 -17.8125 50.453125 -18.5 C 50.710938 -21.425781 50.882812 -24.289062 50.96875 -27.09375 C 51.050781 -29.90625 51.050781 -32.734375 50.96875 -35.578125 C 50.789062 -41.265625 50.398438 -46.828125 49.796875 -52.265625 C 49.285156 -56.398438 48.507812 -60.539062 47.46875 -64.6875 C 47.300781 -65.375 47.128906 -66.0625 46.953125 -66.75 C 46.785156 -67.4375 46.613281 -68.039062 46.4375 -68.5625 L 46.4375 -69.078125 C 46.269531 -69.597656 46.097656 -70.113281 45.921875 -70.625 C 45.742188 -71.144531 45.570312 -71.664062 45.40625 -72.1875 C 44.976562 -72.957031 44.566406 -73.625 44.171875 -74.1875 C 43.785156 -74.75 43.378906 -75.285156 42.953125 -75.796875 C 42.609375 -76.316406 42.238281 -76.75 41.84375 -77.09375 C 41.457031 -77.4375 41.132812 -77.828125 40.875 -78.265625 C 40.1875 -78.867188 39.628906 -79.082031 39.203125 -78.90625 C 38.847656 -78.820312 38.800781 -78.175781 39.0625 -76.96875 C 39.15625 -76.445312 39.304688 -75.773438 39.515625 -74.953125 C 39.734375 -74.140625 40.015625 -73.21875 40.359375 -72.1875 C 40.617188 -71.582031 40.878906 -70.890625 41.140625 -70.109375 C 41.398438 -69.335938 41.632812 -68.582031 41.84375 -67.84375 C 42.0625 -67.113281 42.234375 -66.488281 42.359375 -65.96875 C 42.492188 -65.457031 42.519531 -65.203125 42.4375 -65.203125 C 42.4375 -64.679688 42.304688 -64.484375 42.046875 -64.609375 C 41.785156 -64.742188 41.484375 -64.894531 41.140625 -65.0625 C 42.085938 -61.445312 42.816406 -57.804688 43.328125 -54.140625 C 43.847656 -50.472656 44.238281 -46.695312 44.5 -42.8125 C 45.019531 -35.144531 45.019531 -27.601562 44.5 -20.1875 C 44.757812 -23.894531 44.890625 -27.664062 44.890625 -31.5 C 44.890625 -35.332031 44.71875 -39.148438 44.375 -42.953125 C 44.113281 -46.828125 43.679688 -50.640625 43.078125 -54.390625 C 42.472656 -58.140625 41.65625 -61.828125 40.625 -65.453125 C 40.1875 -65.628906 39.878906 -65.546875 39.703125 -65.203125 C 39.535156 -64.859375 39.582031 -63.820312 39.84375 -62.09375 C 40.007812 -61.0625 40.332031 -59.359375 40.8125 -56.984375 C 41.289062 -54.609375 41.742188 -52 42.171875 -49.15625 C 42.597656 -46.3125 42.921875 -43.398438 43.140625 -40.421875 C 43.359375 -37.453125 43.421875 -34.84375 43.328125 -32.59375 C 43.242188 -29.226562 43.070312 -25.800781 42.8125 -22.3125 C 42.5625 -18.820312 42.175781 -15.394531 41.65625 -12.03125 L 41.65625 -11.390625 L 41.390625 -11 L 41.390625 -10.21875 C 41.222656 -9.695312 41.140625 -9.394531 41.140625 -9.3125 C 40.960938 -9.050781 40.875 -8.75 40.875 -8.40625 C 40.789062 -8.320312 40.726562 -8.210938 40.6875 -8.078125 C 40.644531 -7.953125 40.535156 -7.847656 40.359375 -7.765625 L 40.359375 -7.890625 C 40.273438 -7.972656 40.234375 -8.0625 40.234375 -8.15625 L 40.234375 -8.28125 C 40.140625 -8.445312 40.050781 -8.59375 39.96875 -8.71875 C 39.882812 -8.851562 39.84375 -9.007812 39.84375 -9.1875 C 39.84375 -9.53125 39.820312 -9.785156 39.78125 -9.953125 C 39.738281 -10.128906 39.71875 -10.304688 39.71875 -10.484375 L 39.71875 -10.859375 L 39.578125 -10.859375 L 39.578125 -11.390625 L 39.328125 -12.421875 L 38.8125 -13.96875 L 38.15625 -17.203125 C 37.8125 -18.671875 37.46875 -20.132812 37.125 -21.59375 C 36.78125 -23.0625 36.476562 -24.53125 36.21875 -26 C 35.269531 -30.832031 34.300781 -35.53125 33.3125 -40.09375 C 32.320312 -44.664062 31.304688 -49.238281 30.265625 -53.8125 C 29.835938 -55.539062 29.425781 -57.242188 29.03125 -58.921875 C 28.644531 -60.609375 28.238281 -62.3125 27.8125 -64.03125 C 27.632812 -64.632812 27.484375 -65.28125 27.359375 -65.96875 C 27.234375 -66.664062 27.039062 -67.359375 26.78125 -68.046875 L 26.78125 -68.296875 C 26.519531 -69.503906 26.257812 -70.625 26 -71.65625 C 25.738281 -72.695312 25.476562 -73.78125 25.21875 -74.90625 C 24.789062 -76.625 24.234375 -78.476562 23.546875 -80.46875 C 23.285156 -80.976562 23.15625 -81.535156 23.15625 -82.140625 C 23.070312 -82.140625 23.03125 -82.269531 23.03125 -82.53125 C 22.769531 -82.613281 22.640625 -82.957031 22.640625 -83.5625 C 22.554688 -83.65625 22.46875 -83.765625 22.375 -83.890625 C 22.289062 -84.015625 22.207031 -84.125 22.125 -84.21875 C 22.03125 -84.46875 21.960938 -84.679688 21.921875 -84.859375 C 21.878906 -85.035156 21.773438 -85.25 21.609375 -85.5 C 21.515625 -85.675781 21.425781 -85.828125 21.34375 -85.953125 C 21.257812 -86.085938 21.128906 -86.285156 20.953125 -86.546875 C 20.785156 -86.710938 20.675781 -86.796875 20.625 -86.796875 C 20.582031 -86.796875 20.519531 -86.882812 20.4375 -87.0625 C 20.09375 -87.226562 19.921875 -87.3125 19.921875 -87.3125 L 19.796875 -87.453125 C 19.703125 -87.535156 19.632812 -87.578125 19.59375 -87.578125 C 19.550781 -87.578125 19.488281 -87.617188 19.40625 -87.703125 C 19.40625 -87.785156 19.316406 -87.828125 19.140625 -87.828125 C 18.972656 -87.828125 18.890625 -87.914062 18.890625 -88.09375 L 18.625 -88.09375 C 18.28125 -88.269531 17.894531 -88.359375 17.46875 -88.359375 C 17.207031 -88.523438 16.734375 -88.609375 16.046875 -88.609375 C 15.785156 -88.609375 15.503906 -88.566406 15.203125 -88.484375 C 14.898438 -88.398438 14.617188 -88.3125 14.359375 -88.21875 C 14.273438 -88.132812 14.1875 -88.09375 14.09375 -88.09375 C 14.007812 -88.09375 13.882812 -88.003906 13.71875 -87.828125 C 13.625 -87.742188 13.535156 -87.703125 13.453125 -87.703125 C 13.367188 -87.703125 13.28125 -87.660156 13.1875 -87.578125 C 13.019531 -87.398438 12.914062 -87.3125 12.875 -87.3125 C 12.832031 -87.3125 12.765625 -87.269531 12.671875 -87.1875 L 12.671875 -87.0625 C 12.671875 -87.0625 12.585938 -86.972656 12.421875 -86.796875 C 12.242188 -86.710938 12.15625 -86.648438 12.15625 -86.609375 C 12.15625 -86.566406 12.070312 -86.457031 11.90625 -86.28125 C 11.726562 -86.113281 11.640625 -85.941406 11.640625 -85.765625 L 11.515625 -85.640625 C 11.429688 -85.640625 11.390625 -85.59375 11.390625 -85.5 L 11.25 -85.25 C 11.164062 -85.164062 11.125 -85.035156 11.125 -84.859375 L 11.125 -84.734375 C 10.863281 -84.210938 10.734375 -83.820312 10.734375 -83.5625 C 10.734375 -83.300781 10.691406 -83.128906 10.609375 -83.046875 L 10.609375 -76.328125 C 10.609375 -74.859375 10.5625 -73.347656 10.46875 -71.796875 C 10.382812 -70.242188 10.257812 -68.648438 10.09375 -67.015625 C 9.65625 -63.734375 9.15625 -60.453125 8.59375 -57.171875 C 8.039062 -53.898438 7.546875 -50.664062 7.109375 -47.46875 C 6.679688 -44.113281 6.296875 -40.835938 5.953125 -37.640625 C 5.609375 -34.453125 5.347656 -31.21875 5.171875 -27.9375 C 5.003906 -24.832031 5.003906 -21.75 5.171875 -18.6875 C 5.347656 -15.625 5.648438 -12.671875 6.078125 -9.828125 C 6.515625 -7.410156 7.007812 -5.382812 7.5625 -3.75 C 8.125 -2.113281 8.625 -0.863281 9.0625 0 C 10.007812 1.46875 10.566406 1.679688 10.734375 0.640625 C 11.078125 -0.472656 11.160156 -2.625 10.984375 -5.8125 C 10.816406 -9.007812 10.863281 -12.976562 11.125 -17.71875 L 11.90625 -17.71875 C 11.90625 -15.300781 12.007812 -13.335938 12.21875 -11.828125 C 12.4375 -10.328125 12.632812 -9.144531 12.8125 -8.28125 C 13.0625 -7.414062 13.296875 -6.832031 13.515625 -6.53125 C 13.734375 -6.226562 13.972656 -5.992188 14.234375 -5.828125 C 14.316406 -5.828125 14.441406 -5.910156 14.609375 -6.078125 C 14.785156 -6.253906 14.957031 -6.425781 15.125 -6.59375 C 15.300781 -6.769531 15.472656 -6.898438 15.640625 -6.984375 C 15.816406 -7.066406 16.035156 -6.984375 16.296875 -6.734375 C 15.347656 -11.128906 14.9375 -15.585938 15.0625 -20.109375 C 15.195312 -24.640625 15.648438 -29.234375 16.421875 -33.890625 C 16.515625 -35.015625 16.664062 -36.523438 16.875 -38.421875 C 17.09375 -40.316406 17.289062 -41.828125 17.46875 -42.953125 C 17.632812 -44.671875 17.847656 -46.4375 18.109375 -48.25 C 18.367188 -50.0625 18.628906 -51.875 18.890625 -53.6875 L 18.890625 -53.421875 C 18.890625 -53.335938 18.929688 -53.296875 19.015625 -53.296875 C 19.015625 -52.867188 19.144531 -52.476562 19.40625 -52.125 C 19.75 -50.488281 20.070312 -48.851562 20.375 -47.21875 C 20.675781 -45.582031 21.039062 -43.941406 21.46875 -42.296875 C 22.332031 -38.585938 23.195312 -34.878906 24.0625 -31.171875 C 24.925781 -27.460938 25.832031 -23.753906 26.78125 -20.046875 L 28.84375 -11.765625 L 29.875 -6.734375 C 30.226562 -5.429688 30.597656 -4.132812 30.984375 -2.84375 C 31.367188 -1.550781 31.691406 -0.300781 31.953125 0.90625 C 32.378906 2.113281 32.785156 3.320312 33.171875 4.53125 C 33.566406 5.738281 33.976562 6.859375 34.40625 7.890625 C 34.664062 8.835938 35.054688 9.914062 35.578125 11.125 C 36.003906 11.8125 36.390625 12.546875 36.734375 13.328125 Z M 47.46875 22.25 L 46.4375 25.09375 L 46.4375 25.359375 L 47.46875 22.640625 Z M 43.46875 -12.8125 C 43.726562 -14.019531 43.921875 -15.25 44.046875 -16.5 C 44.171875 -17.75 44.320312 -18.976562 44.5 -20.1875 C 44.320312 -18.976562 44.191406 -17.75 44.109375 -16.5 C 44.023438 -15.25 43.894531 -14.019531 43.71875 -12.8125 L 43.328125 -9.828125 C 43.242188 -9.484375 43.160156 -9.140625 43.078125 -8.796875 C 42.992188 -8.453125 42.953125 -8.148438 42.953125 -7.890625 C 42.859375 -7.804688 42.8125 -7.695312 42.8125 -7.5625 C 42.8125 -7.4375 42.769531 -7.332031 42.6875 -7.25 C 42.519531 -6.644531 42.390625 -6.039062 42.296875 -5.4375 C 42.210938 -4.832031 42.082031 -4.269531 41.90625 -3.75 C 41.820312 -3.75 41.78125 -3.707031 41.78125 -3.625 C 41.613281 -3.1875 41.460938 -2.753906 41.328125 -2.328125 C 41.203125 -1.898438 41.050781 -1.46875 40.875 -1.03125 L 40.75 -0.90625 C 40.75 -0.820312 40.707031 -0.78125 40.625 -0.78125 L 40.625 -0.90625 L 40.359375 -1.03125 C 40.359375 -1.207031 40.335938 -1.359375 40.296875 -1.484375 C 40.253906 -1.617188 40.234375 -1.769531 40.234375 -1.9375 C 40.054688 -2.195312 39.945312 -2.476562 39.90625 -2.78125 C 39.863281 -3.082031 39.753906 -3.363281 39.578125 -3.625 C 39.410156 -4.050781 39.28125 -4.476562 39.1875 -4.90625 C 39.101562 -5.34375 38.976562 -5.773438 38.8125 -6.203125 L 38.8125 -6.734375 C 38.632812 -7.242188 38.503906 -7.757812 38.421875 -8.28125 C 38.335938 -8.800781 38.25 -9.273438 38.15625 -9.703125 L 38.15625 -10.34375 L 38.03125 -10.734375 L 37.765625 -11.390625 L 37.125 -14.625 L 37.765625 -11.390625 L 38.03125 -10.734375 L 38.15625 -10.34375 L 38.15625 -9.703125 C 38.25 -9.273438 38.359375 -8.800781 38.484375 -8.28125 C 38.609375 -7.757812 38.71875 -7.285156 38.8125 -6.859375 L 38.8125 -6.734375 C 38.976562 -6.210938 39.125 -5.710938 39.25 -5.234375 C 39.382812 -4.765625 39.539062 -4.269531 39.71875 -3.75 C 39.800781 -3.488281 39.863281 -3.226562 39.90625 -2.96875 C 39.945312 -2.71875 40.054688 -2.460938 40.234375 -2.203125 C 40.234375 -2.109375 40.253906 -2 40.296875 -1.875 C 40.335938 -1.75 40.359375 -1.640625 40.359375 -1.546875 L 40.625 -1.421875 C 40.625 -1.160156 40.664062 -1.078125 40.75 -1.171875 L 40.875 -1.546875 C 41.050781 -1.890625 41.203125 -2.273438 41.328125 -2.703125 C 41.460938 -3.140625 41.613281 -3.578125 41.78125 -4.015625 L 41.78125 -4.140625 C 41.957031 -4.660156 42.109375 -5.175781 42.234375 -5.6875 C 42.367188 -6.207031 42.519531 -6.769531 42.6875 -7.375 C 42.6875 -7.539062 42.707031 -7.664062 42.75 -7.75 C 42.789062 -7.84375 42.8125 -7.976562 42.8125 -8.15625 C 42.90625 -8.40625 42.953125 -8.679688 42.953125 -8.984375 C 42.953125 -9.285156 43.035156 -9.566406 43.203125 -9.828125 L 43.46875 -10.859375 Z M 43.46875 -12.8125 "/></g></g></g><g fill="#ffffff" fill-opacity="1"><g transform="translate(180.233334, 102.291093)"><g><path d="M 53.03125 -64.296875 C 53.550781 -62.828125 53.914062 -61.378906 54.125 -59.953125 C 54.34375 -58.535156 54.5 -57.09375 54.59375 -55.625 L 54.59375 -47.34375 C 54.59375 -45.363281 54.59375 -43.207031 54.59375 -40.875 C 54.59375 -38.550781 54.546875 -36.265625 54.453125 -34.015625 L 54.453125 -33.25 C 54.367188 -30.914062 54.285156 -28.800781 54.203125 -26.90625 C 54.117188 -25.007812 54.03125 -23.15625 53.9375 -21.34375 C 53.769531 -19.613281 53.535156 -17.628906 53.234375 -15.390625 C 52.929688 -13.148438 52.476562 -10.863281 51.875 -8.53125 C 51.53125 -7.332031 51.160156 -6.128906 50.765625 -4.921875 C 50.378906 -3.710938 49.929688 -2.585938 49.421875 -1.546875 C 48.722656 -0.0859375 47.984375 1.222656 47.203125 2.390625 C 46.429688 3.554688 45.570312 4.65625 44.625 5.6875 C 42.125 8.445312 39.019531 10.390625 35.3125 11.515625 C 33.59375 11.941406 32 12.15625 30.53125 12.15625 C 30.1875 12.332031 29.710938 12.421875 29.109375 12.421875 C 28.503906 12.421875 27.941406 12.375 27.421875 12.28125 C 26.898438 12.195312 26.34375 12.113281 25.75 12.03125 C 22.382812 11.6875 19.101562 10.4375 15.90625 8.28125 C 13.320312 6.289062 11.253906 3.875 9.703125 1.03125 C 9.441406 0.601562 9.179688 0.15625 8.921875 -0.3125 C 8.660156 -0.789062 8.40625 -1.25 8.15625 -1.6875 C 7.894531 -2.113281 7.632812 -2.519531 7.375 -2.90625 C 7.113281 -3.300781 6.851562 -3.710938 6.59375 -4.140625 C 5.039062 -6.640625 3.941406 -9.070312 3.296875 -11.4375 C 2.648438 -13.8125 2.113281 -16.078125 1.6875 -18.234375 C 0.90625 -22.890625 0.515625 -27.375 0.515625 -31.6875 C 0.515625 -36 0.644531 -40.054688 0.90625 -43.859375 C 1.082031 -44.460938 1.210938 -45.363281 1.296875 -46.5625 C 1.378906 -47.769531 1.421875 -48.722656 1.421875 -49.421875 C 1.597656 -49.503906 1.6875 -49.675781 1.6875 -49.9375 C 2.375 -52.601562 2.972656 -55.273438 3.484375 -57.953125 C 4.003906 -60.628906 4.523438 -63.21875 5.046875 -65.71875 C 5.472656 -67.695312 6.679688 -68.90625 8.671875 -69.34375 C 9.523438 -69.425781 10.253906 -69.425781 10.859375 -69.34375 C 11.117188 -69.34375 11.398438 -69.34375 11.703125 -69.34375 C 12.003906 -69.34375 12.375 -69.296875 12.8125 -69.203125 C 13.238281 -69.722656 13.882812 -70.285156 14.75 -70.890625 C 15.4375 -71.234375 16.34375 -71.40625 17.46875 -71.40625 C 19.1875 -71.40625 20.566406 -70.84375 21.609375 -69.71875 C 22.460938 -68.863281 23.109375 -67.484375 23.546875 -65.578125 C 24.054688 -65.066406 24.488281 -64.722656 24.84375 -64.546875 C 25.789062 -63.335938 26.347656 -61.9375 26.515625 -60.34375 C 26.691406 -58.75 26.691406 -56.875 26.515625 -54.71875 C 26.347656 -53.425781 26.195312 -52.128906 26.0625 -50.828125 C 25.9375 -49.535156 25.742188 -48.242188 25.484375 -46.953125 C 25.304688 -45.054688 25.128906 -43.113281 24.953125 -41.125 C 24.785156 -39.144531 24.617188 -37.125 24.453125 -35.0625 C 24.191406 -32.46875 24.039062 -29.445312 24 -26 C 23.957031 -22.550781 24.28125 -19.234375 24.96875 -16.046875 C 25.132812 -15.523438 25.257812 -15.046875 25.34375 -14.609375 C 25.4375 -14.179688 25.484375 -13.796875 25.484375 -13.453125 L 26 -13.453125 C 26.601562 -13.453125 26.945312 -13.492188 27.03125 -13.578125 C 27.207031 -13.753906 27.507812 -14.1875 27.9375 -14.875 C 28.375 -15.5625 28.765625 -16.554688 29.109375 -17.859375 C 29.535156 -19.054688 29.898438 -20.429688 30.203125 -21.984375 C 30.503906 -23.535156 30.785156 -25.265625 31.046875 -27.171875 C 31.304688 -29.753906 31.476562 -32.359375 31.5625 -34.984375 C 31.644531 -37.617188 31.773438 -40.273438 31.953125 -42.953125 L 31.953125 -43.328125 C 31.953125 -44.191406 31.972656 -45.097656 32.015625 -46.046875 C 32.054688 -46.992188 32.117188 -47.941406 32.203125 -48.890625 C 32.203125 -49.847656 32.179688 -50.925781 32.140625 -52.125 C 32.097656 -53.332031 32.035156 -54.628906 31.953125 -56.015625 C 31.773438 -58.597656 31.6875 -60.773438 31.6875 -62.546875 C 31.6875 -64.316406 31.816406 -65.71875 32.078125 -66.75 C 32.335938 -68.300781 32.769531 -69.460938 33.375 -70.234375 C 33.976562 -71.015625 34.625 -71.578125 35.3125 -71.921875 L 35.3125 -72.3125 C 36.351562 -77.226562 38.640625 -79.6875 42.171875 -79.6875 C 44.671875 -79.6875 46.738281 -77.960938 48.375 -74.515625 L 48.375 -74.125 L 48.640625 -73.734375 C 48.804688 -73.390625 48.890625 -73.128906 48.890625 -72.953125 C 49.410156 -72.441406 49.882812 -71.90625 50.3125 -71.34375 C 50.75 -70.78125 51.140625 -70.113281 51.484375 -69.34375 C 51.484375 -69.25 51.523438 -69.160156 51.609375 -69.078125 C 51.703125 -68.992188 51.75 -68.90625 51.75 -68.8125 L 51.875 -68.4375 C 51.957031 -68.082031 52.171875 -67.476562 52.515625 -66.625 C 52.515625 -66.445312 52.554688 -66.226562 52.640625 -65.96875 C 52.734375 -65.707031 52.78125 -65.492188 52.78125 -65.328125 C 52.945312 -65.148438 53.03125 -64.804688 53.03125 -64.296875 Z M 42.953125 -1.03125 C 43.117188 -1.289062 43.285156 -1.550781 43.453125 -1.8125 C 43.628906 -2.070312 43.804688 -2.332031 43.984375 -2.59375 C 43.804688 -2.332031 43.628906 -2.09375 43.453125 -1.875 C 43.285156 -1.65625 43.117188 -1.421875 42.953125 -1.171875 Z M 6.34375 -19.28125 C 6.769531 -17.125 7.285156 -15.007812 7.890625 -12.9375 C 8.492188 -10.863281 9.398438 -8.796875 10.609375 -6.734375 C 11.210938 -5.691406 11.898438 -4.675781 12.671875 -3.6875 C 13.453125 -2.695312 14.398438 -1.8125 15.515625 -1.03125 C 16.722656 -0.164062 17.992188 0.519531 19.328125 1.03125 C 20.671875 1.550781 21.988281 1.894531 23.28125 2.0625 L 23.546875 2.0625 C 24.660156 2.238281 25.820312 2.238281 27.03125 2.0625 L 27.546875 2.0625 C 28.671875 2.0625 29.796875 1.890625 30.921875 1.546875 L 31.046875 1.546875 C 31.128906 1.460938 31.253906 1.421875 31.421875 1.421875 C 31.597656 1.421875 31.773438 1.335938 31.953125 1.171875 C 34.191406 0.390625 36.175781 -0.90625 37.90625 -2.71875 C 38.851562 -3.664062 39.648438 -4.65625 40.296875 -5.6875 C 40.941406 -6.726562 41.523438 -7.765625 42.046875 -8.796875 C 42.210938 -9.222656 42.359375 -9.609375 42.484375 -9.953125 C 42.617188 -10.304688 42.773438 -10.695312 42.953125 -11.125 C 43.203125 -11.8125 43.414062 -12.457031 43.59375 -13.0625 C 43.769531 -13.664062 43.941406 -14.3125 44.109375 -15 C 44.628906 -17.15625 45.039062 -19.203125 45.34375 -21.140625 C 45.644531 -23.085938 45.878906 -25.050781 46.046875 -27.03125 C 46.222656 -28.925781 46.3125 -30.84375 46.3125 -32.78125 C 46.3125 -34.726562 46.394531 -36.648438 46.5625 -38.546875 C 46.394531 -36.128906 46.265625 -33.671875 46.171875 -31.171875 C 46.085938 -28.671875 45.875 -26.171875 45.53125 -23.671875 C 45.363281 -22.460938 45.171875 -21.234375 44.953125 -19.984375 C 44.734375 -18.734375 44.492188 -17.460938 44.234375 -16.171875 C 43.984375 -15.484375 43.769531 -14.789062 43.59375 -14.09375 C 43.414062 -13.40625 43.203125 -12.675781 42.953125 -11.90625 C 42.773438 -11.382812 42.578125 -10.820312 42.359375 -10.21875 C 42.148438 -9.613281 41.828125 -9.007812 41.390625 -8.40625 C 40.703125 -7.113281 39.90625 -5.820312 39 -4.53125 C 38.09375 -3.238281 36.953125 -2.117188 35.578125 -1.171875 C 35.054688 -0.734375 34.492188 -0.363281 33.890625 -0.0625 C 33.285156 0.238281 32.640625 0.472656 31.953125 0.640625 C 31.691406 0.898438 31.390625 1.03125 31.046875 1.03125 L 30.921875 1.03125 C 30.222656 1.289062 29.613281 1.441406 29.09375 1.484375 C 28.582031 1.523438 28.066406 1.59375 27.546875 1.6875 C 27.296875 1.6875 27.039062 1.726562 26.78125 1.8125 C 26.519531 1.894531 26.257812 1.9375 26 1.9375 C 25.570312 1.9375 25.160156 1.894531 24.765625 1.8125 C 24.378906 1.726562 23.972656 1.640625 23.546875 1.546875 C 23.109375 1.546875 22.71875 1.523438 22.375 1.484375 C 22.03125 1.441406 21.644531 1.335938 21.21875 1.171875 C 20.4375 0.992188 19.632812 0.707031 18.8125 0.3125 C 18 -0.0703125 17.203125 -0.476562 16.421875 -0.90625 C 15.046875 -1.769531 13.835938 -2.828125 12.796875 -4.078125 C 11.765625 -5.328125 10.90625 -6.597656 10.21875 -7.890625 C 10.300781 -7.804688 10.40625 -7.738281 10.53125 -7.6875 C 10.664062 -7.644531 10.691406 -7.84375 10.609375 -8.28125 C 10.691406 -8.019531 10.816406 -7.757812 10.984375 -7.5 C 11.160156 -7.238281 11.296875 -6.984375 11.390625 -6.734375 C 11.734375 -6.378906 12.035156 -6.03125 12.296875 -5.6875 C 12.890625 -4.914062 13.550781 -4.160156 14.28125 -3.421875 C 15.019531 -2.691406 15.910156 -2.023438 16.953125 -1.421875 C 17.640625 -0.992188 18.390625 -0.628906 19.203125 -0.328125 C 20.023438 -0.0234375 20.828125 0.253906 21.609375 0.515625 C 21.953125 0.597656 22.25 0.679688 22.5 0.765625 C 22.757812 0.859375 23.109375 0.90625 23.546875 0.90625 C 23.972656 0.988281 24.421875 1.03125 24.890625 1.03125 C 25.367188 1.03125 25.828125 1.03125 26.265625 1.03125 L 27.546875 1.03125 C 28.066406 0.945312 28.582031 0.859375 29.09375 0.765625 C 29.613281 0.679688 30.222656 0.554688 30.921875 0.390625 L 31.046875 0.390625 C 31.128906 0.128906 31.429688 0 31.953125 0 C 32.554688 -0.257812 33.132812 -0.539062 33.6875 -0.84375 C 34.25 -1.144531 34.789062 -1.507812 35.3125 -1.9375 C 36.601562 -2.976562 37.703125 -4.097656 38.609375 -5.296875 C 39.515625 -6.503906 40.3125 -7.710938 41 -8.921875 C 41.351562 -9.785156 41.722656 -10.601562 42.109375 -11.375 C 42.492188 -12.15625 42.773438 -12.9375 42.953125 -13.71875 C 43.554688 -15.519531 44.007812 -17.304688 44.3125 -19.078125 C 44.613281 -20.847656 44.890625 -22.640625 45.140625 -24.453125 C 45.398438 -26.953125 45.722656 -29.453125 46.109375 -31.953125 C 46.503906 -34.453125 46.65625 -36.992188 46.5625 -39.578125 C 46.65625 -43.117188 46.675781 -46.632812 46.625 -50.125 C 46.582031 -53.613281 46.609375 -57.128906 46.703125 -60.671875 C 46.609375 -62.222656 46.453125 -63.625 46.234375 -64.875 C 46.023438 -66.125 45.789062 -67.265625 45.53125 -68.296875 C 45.101562 -63.035156 44.890625 -57.6875 44.890625 -52.25 C 44.890625 -46.820312 44.800781 -41.21875 44.625 -35.4375 C 44.457031 -32.769531 44.265625 -30.078125 44.046875 -27.359375 C 43.828125 -24.640625 43.460938 -21.945312 42.953125 -19.28125 C 42.953125 -18.925781 42.863281 -18.578125 42.6875 -18.234375 C 42.425781 -16.773438 42.054688 -15.332031 41.578125 -13.90625 C 41.109375 -12.476562 40.570312 -11.035156 39.96875 -9.578125 C 39.28125 -8.109375 38.414062 -6.726562 37.375 -5.4375 C 36.34375 -4.144531 35.097656 -3.019531 33.640625 -2.0625 C 34.929688 -2.84375 36.03125 -3.816406 36.9375 -4.984375 C 37.84375 -6.148438 38.640625 -7.332031 39.328125 -8.53125 C 40.441406 -10.945312 41.347656 -13.492188 42.046875 -16.171875 C 42.210938 -17.035156 42.359375 -17.851562 42.484375 -18.625 C 42.617188 -19.40625 42.773438 -20.179688 42.953125 -20.953125 C 43.296875 -22.679688 43.53125 -24.382812 43.65625 -26.0625 C 43.789062 -27.75 43.984375 -29.453125 44.234375 -31.171875 C 44.492188 -34.535156 44.625 -37.832031 44.625 -41.0625 C 44.625 -44.300781 44.625 -47.429688 44.625 -50.453125 C 44.625 -53.472656 44.601562 -56.488281 44.5625 -59.5 C 44.519531 -62.519531 44.585938 -65.453125 44.765625 -68.296875 L 44.765625 -70.375 C 44.671875 -70.71875 44.554688 -71.082031 44.421875 -71.46875 C 44.296875 -71.851562 44.191406 -72.175781 44.109375 -72.4375 C 43.941406 -72.695312 43.789062 -72.957031 43.65625 -73.21875 C 43.53125 -73.476562 43.378906 -73.738281 43.203125 -74 C 42.691406 -74.6875 42.132812 -74.898438 41.53125 -74.640625 C 40.925781 -74.378906 40.40625 -73.257812 39.96875 -71.28125 L 39.96875 -67.265625 C 39.707031 -67.003906 39.445312 -66.914062 39.1875 -67 C 38.9375 -67.09375 38.679688 -67.179688 38.421875 -67.265625 L 38.421875 -41.78125 C 38.421875 -45.75 38.375 -49.78125 38.28125 -53.875 C 38.195312 -57.96875 38.15625 -62.128906 38.15625 -66.359375 C 38.15625 -66.535156 38.113281 -66.75 38.03125 -67 C 37.945312 -67.257812 37.90625 -67.476562 37.90625 -67.65625 C 37.644531 -67.738281 37.40625 -67.691406 37.1875 -67.515625 C 36.976562 -67.347656 36.828125 -66.789062 36.734375 -65.84375 C 36.648438 -65.757812 36.609375 -65.5 36.609375 -65.0625 C 36.523438 -64.113281 36.484375 -62.945312 36.484375 -61.5625 C 36.484375 -60.1875 36.523438 -58.742188 36.609375 -57.234375 C 36.691406 -55.734375 36.753906 -54.207031 36.796875 -52.65625 C 36.847656 -51.101562 36.875 -49.765625 36.875 -48.640625 C 36.695312 -45.015625 36.539062 -41.347656 36.40625 -37.640625 C 36.28125 -33.929688 36.046875 -30.265625 35.703125 -26.640625 C 35.523438 -24.835938 35.285156 -23.09375 34.984375 -21.40625 C 34.679688 -19.726562 34.273438 -18.15625 33.765625 -16.6875 C 33.421875 -15.476562 33.078125 -14.488281 32.734375 -13.71875 C 32.210938 -12.769531 31.691406 -11.945312 31.171875 -11.25 C 30.660156 -10.5625 30.144531 -10.085938 29.625 -9.828125 C 29.019531 -9.222656 28.414062 -8.878906 27.8125 -8.796875 L 26 -8.796875 C 24.445312 -8.796875 23.195312 -9.140625 22.25 -9.828125 C 21.039062 -10.691406 20.003906 -12.070312 19.140625 -13.96875 C 18.191406 -15.695312 17.503906 -17.8125 17.078125 -20.3125 C 16.390625 -23.414062 16.046875 -26.734375 16.046875 -30.265625 C 16.046875 -33.804688 16.171875 -37.34375 16.421875 -40.875 C 16.679688 -44.5 17.023438 -47.925781 17.453125 -51.15625 C 17.890625 -54.394531 18.28125 -57.476562 18.625 -60.40625 C 18.800781 -61.789062 18.84375 -62.890625 18.75 -63.703125 C 18.664062 -64.523438 18.539062 -65.195312 18.375 -65.71875 C 18.03125 -66.664062 17.554688 -66.96875 16.953125 -66.625 C 16.691406 -66.445312 16.363281 -66.140625 15.96875 -65.703125 C 15.582031 -65.273438 15.21875 -64.71875 14.875 -64.03125 C 14.445312 -63.257812 14.015625 -62.289062 13.578125 -61.125 C 13.148438 -59.957031 12.722656 -58.6875 12.296875 -57.3125 L 11.390625 -57.4375 C 11.816406 -59.507812 12.070312 -61.0625 12.15625 -62.09375 C 12.25 -63.125 12.25 -63.8125 12.15625 -64.15625 C 11.988281 -64.15625 11.90625 -64.242188 11.90625 -64.421875 L 11.765625 -64.546875 C 11.421875 -64.640625 11.03125 -64.597656 10.59375 -64.421875 C 10.164062 -64.242188 9.867188 -64.332031 9.703125 -64.6875 C 9.617188 -64.332031 9.507812 -63.984375 9.375 -63.640625 C 9.25 -63.296875 9.1875 -62.953125 9.1875 -62.609375 C 8.75 -60.191406 8.269531 -57.863281 7.75 -55.625 C 7.238281 -53.382812 6.769531 -51.140625 6.34375 -48.890625 C 6.164062 -48.203125 6.054688 -47.273438 6.015625 -46.109375 C 5.972656 -44.953125 5.910156 -44.023438 5.828125 -43.328125 C 5.390625 -39.273438 5.191406 -35.265625 5.234375 -31.296875 C 5.273438 -27.335938 5.644531 -23.332031 6.34375 -19.28125 Z M 27.546875 7.109375 C 27.378906 6.941406 27.296875 6.859375 27.296875 6.859375 L 24.84375 6.859375 C 25.445312 7.117188 26.09375 7.25 26.78125 7.25 L 27.546875 7.25 Z M 31.953125 6.859375 C 31.773438 6.859375 31.597656 6.898438 31.421875 6.984375 C 31.253906 7.066406 31.085938 7.109375 30.921875 7.109375 L 30.921875 7.375 C 31.085938 7.375 31.253906 7.351562 31.421875 7.3125 C 31.597656 7.269531 31.773438 7.25 31.953125 7.25 Z M 47.21875 -8.921875 C 47.132812 -8.835938 47.09375 -8.726562 47.09375 -8.59375 C 47.09375 -8.46875 47.003906 -8.363281 46.828125 -8.28125 C 46.566406 -7.414062 46.304688 -6.550781 46.046875 -5.6875 C 45.785156 -4.820312 45.441406 -3.960938 45.015625 -3.109375 C 44.753906 -2.585938 44.453125 -2.066406 44.109375 -1.546875 C 43.765625 -1.035156 43.378906 -0.476562 42.953125 0.125 L 42.953125 0.640625 C 43.460938 -0.046875 43.910156 -0.734375 44.296875 -1.421875 C 44.691406 -2.109375 45.101562 -2.84375 45.53125 -3.625 C 45.875 -4.394531 46.175781 -5.164062 46.4375 -5.9375 C 46.695312 -6.71875 46.957031 -7.5 47.21875 -8.28125 Z M 36.09375 -18.75 C 36.695312 -21.164062 37.128906 -23.625 37.390625 -26.125 C 37.640625 -28.71875 37.851562 -31.304688 38.03125 -33.890625 C 38.207031 -36.472656 38.335938 -39.101562 38.421875 -41.78125 C 38.421875 -39.019531 38.351562 -36.34375 38.21875 -33.75 C 38.09375 -31.164062 37.816406 -28.582031 37.390625 -26 C 37.210938 -23.320312 36.820312 -20.90625 36.21875 -18.75 C 35.875 -17.550781 35.503906 -16.390625 35.109375 -15.265625 C 34.722656 -14.140625 34.273438 -13.101562 33.765625 -12.15625 C 34.273438 -13.101562 34.722656 -14.160156 35.109375 -15.328125 C 35.503906 -16.492188 35.832031 -17.632812 36.09375 -18.75 Z M 36.09375 -18.75 "/></g></g></g></g></g></svg>