<svg xmlns="http://www.w3.org/2000/svg" xmlns:xlink="http://www.w3.org/1999/xlink" width="244" zoomAndPan="magnify" viewBox="0 0 183 139.500001" height="186" preserveAspectRatio="xMidYMid meet" version="1.0"><defs><clipPath id="e51c307576"><path d="M 92 56 L 134.675781 56 L 134.675781 84.449219 L 92 84.449219 Z M 92 56 " clip-rule="nonzero"/></clipPath><clipPath id="27def3aba2"><path d="M 109 34 L 134.675781 34 L 134.675781 60 L 109 60 Z M 109 34 " clip-rule="nonzero"/></clipPath></defs><g clip-path="url(#e51c307576)"><path fill="#3a5f7d" d="M 105.550781 61.589844 C 106.324219 61.660156 106.925781 61.757812 107.527344 61.761719 C 112.03125 61.78125 116.539062 61.851562 121.042969 61.757812 C 123.207031 61.710938 125.382812 61.464844 127.519531 61.09375 C 130.320312 60.609375 132.839844 59.4375 135.003906 56.964844 C 135 59.410156 134.414062 61.34375 133.425781 63.148438 C 131.746094 66.214844 130.027344 69.257812 128.289062 72.292969 C 125.578125 77.019531 121.492188 79.378906 116.027344 79.339844 C 113.386719 79.320312 110.742188 79.332031 108.101562 79.332031 C 107.335938 79.332031 106.574219 79.332031 105.542969 79.332031 C 105.453125 81.03125 105.371094 82.539062 105.289062 84.070312 C 103.75 83.195312 95.484375 74.578125 92.304688 70.515625 C 96.25 65.847656 100.699219 61.582031 105.222656 56.585938 C 105.355469 58.570312 105.449219 60.035156 105.550781 61.589844 Z M 105.550781 61.589844 " fill-opacity="1" fill-rule="nonzero"/></g><path fill="#3a5f7d" d="M 56.269531 40.082031 C 54.878906 39.191406 53.710938 38.445312 52.515625 37.679688 C 53.867188 36.777344 65.703125 34.0625 70.730469 33.503906 C 72.578125 39.390625 74.050781 45.425781 75.855469 51.894531 C 74.070312 50.867188 72.8125 50.144531 71.578125 49.433594 C 71.269531 49.683594 71.039062 49.792969 70.933594 49.976562 C 67.945312 54.972656 64.855469 59.910156 62.042969 65 C 60.03125 68.636719 58.785156 72.546875 60.125 77.265625 C 58.132812 75.941406 56.847656 74.636719 55.921875 73.027344 C 53.941406 69.597656 51.921875 66.183594 50.140625 62.65625 C 47.996094 58.410156 48.132812 54.097656 50.503906 49.945312 C 52.039062 47.246094 53.691406 44.613281 55.28125 41.949219 C 55.59375 41.429688 55.851562 40.878906 56.269531 40.082031 Z M 56.269531 40.082031 " fill-opacity="1" fill-rule="nonzero"/><path fill="#3a5f7d" d="M 99.128906 25.117188 C 95.5 19.082031 92.160156 13.304688 88.578125 7.679688 C 86.757812 4.8125 84.160156 2.683594 80.480469 1.8125 C 82.167969 0.496094 83.984375 0.222656 85.769531 0.175781 C 89.808594 0.0742188 93.855469 -0.00390625 97.886719 0.1875 C 102.453125 0.398438 106.054688 2.5625 108.449219 6.484375 C 110.148438 9.265625 111.675781 12.152344 113.289062 14.988281 C 113.554688 15.449219 113.859375 15.890625 114.273438 16.539062 C 115.613281 15.863281 116.898438 15.214844 118.644531 14.332031 C 116.921875 20.660156 114.992188 26.484375 113.101562 32.585938 C 106.945312 31.054688 100.957031 29.566406 94.488281 27.960938 C 96.203125 26.910156 97.484375 26.125 99.128906 25.117188 Z M 99.128906 25.117188 " fill-opacity="1" fill-rule="nonzero"/><path fill="#3a5f7d" d="M 84.796875 62.078125 C 84.796875 67.78125 84.796875 73.410156 84.796875 79.183594 C 83.980469 79.238281 83.304688 79.320312 82.625 79.320312 C 77.582031 79.332031 72.539062 79.328125 67.496094 79.324219 C 66.875 79.324219 66.25 79.328125 65.636719 79.242188 C 63.550781 78.957031 62.460938 77.886719 62.171875 75.78125 C 61.855469 73.503906 62.160156 71.246094 63 69.148438 C 63.863281 67 65.019531 64.96875 66.046875 62.886719 C 66.425781 62.117188 66.988281 61.757812 67.890625 61.765625 C 73.324219 61.808594 78.753906 61.808594 84.183594 61.832031 C 84.324219 61.832031 84.464844 61.941406 84.796875 62.078125 Z M 84.796875 62.078125 " fill-opacity="1" fill-rule="nonzero"/><path fill="#3a5f7d" d="M 81.40625 31.058594 C 76.28125 28.164062 71.324219 25.359375 66.214844 22.476562 C 67.113281 20.851562 67.894531 19.441406 68.675781 18.03125 C 70.671875 14.4375 72.769531 10.894531 74.640625 7.234375 C 76.683594 3.230469 79.738281 3.6875 82.402344 5.265625 C 85.929688 7.351562 88.046875 10.738281 89.863281 14.289062 C 90.097656 14.742188 90.023438 15.554688 89.765625 16.023438 C 87.058594 20.984375 84.285156 25.90625 81.40625 31.058594 Z M 81.40625 31.058594 " fill-opacity="1" fill-rule="nonzero"/><g clip-path="url(#27def3aba2)"><path fill="#3a5f7d" d="M 109.34375 43.417969 C 114.0625 40.539062 118.871094 37.605469 123.808594 34.59375 C 124.238281 35.167969 124.636719 35.617188 124.945312 36.121094 C 127.710938 40.699219 130.476562 45.277344 133.214844 49.871094 C 134.679688 52.328125 134.519531 53.609375 132.660156 55.710938 C 131.597656 56.917969 130.257812 57.660156 128.753906 58.117188 C 125.832031 59.003906 122.84375 59.355469 119.796875 59.289062 C 118.945312 59.273438 118.324219 59.039062 117.871094 58.277344 C 115.058594 53.546875 112.222656 48.828125 109.40625 44.101562 C 109.335938 43.984375 109.375 43.804688 109.34375 43.417969 Z M 109.34375 43.417969 " fill-opacity="1" fill-rule="nonzero"/></g></svg>