<svg xmlns="http://www.w3.org/2000/svg" xmlns:xlink="http://www.w3.org/1999/xlink" width="244" zoomAndPan="magnify" viewBox="0 0 183 139.500001" height="186" preserveAspectRatio="xMidYMid meet" version="1.0"><defs><clipPath id="349756ce82"><path d="M 92 93 L 163.792969 93 L 163.792969 139 L 92 139 Z M 92 93 " clip-rule="nonzero"/></clipPath></defs><g clip-path="url(#349756ce82)"><path fill="#3a5f7d" d="M 114.730469 101.832031 C 116.007812 101.945312 117.003906 102.109375 117.996094 102.113281 C 125.445312 102.144531 132.898438 102.257812 140.347656 102.105469 C 143.921875 102.03125 147.519531 101.621094 151.046875 101.011719 C 155.683594 100.207031 159.847656 98.273438 163.425781 94.183594 C 163.417969 98.226562 162.453125 101.421875 160.816406 104.40625 C 158.039062 109.472656 155.195312 114.507812 152.324219 119.519531 C 147.84375 127.339844 141.082031 131.238281 132.050781 131.175781 C 127.683594 131.144531 123.316406 131.164062 118.949219 131.160156 C 117.683594 131.160156 116.421875 131.160156 114.71875 131.160156 C 114.570312 133.972656 114.433594 136.46875 114.296875 138.996094 C 111.75 137.546875 98.089844 123.304688 92.832031 116.585938 C 99.355469 108.871094 106.707031 101.8125 114.1875 93.554688 C 114.402344 96.832031 114.5625 99.257812 114.730469 101.832031 Z M 114.730469 101.832031 " fill-opacity="1" fill-rule="nonzero"/></g><path fill="#3a5f7d" d="M 33.253906 66.269531 C 30.949219 64.792969 29.023438 63.5625 27.046875 62.300781 C 29.28125 60.804688 48.851562 56.316406 57.164062 55.390625 C 60.214844 65.125 62.652344 75.101562 65.628906 85.800781 C 62.679688 84.101562 60.601562 82.90625 58.5625 81.730469 C 58.054688 82.144531 57.671875 82.324219 57.492188 82.625 C 52.558594 90.886719 47.445312 99.050781 42.792969 107.46875 C 39.472656 113.476562 37.414062 119.945312 39.628906 127.75 C 36.335938 125.558594 34.210938 123.398438 32.675781 120.738281 C 29.40625 115.070312 26.066406 109.425781 23.117188 103.589844 C 19.574219 96.574219 19.800781 89.441406 23.714844 82.574219 C 26.257812 78.113281 28.992188 73.765625 31.621094 69.355469 C 32.132812 68.496094 32.558594 67.585938 33.253906 66.269531 Z M 33.253906 66.269531 " fill-opacity="1" fill-rule="nonzero"/><path fill="#3a5f7d" d="M 104.113281 41.523438 C 98.109375 31.546875 92.589844 21.996094 86.671875 12.695312 C 83.65625 7.957031 79.363281 4.433594 73.277344 3 C 76.070312 0.824219 79.074219 0.367188 82.027344 0.292969 C 88.703125 0.125 95.398438 -0.00390625 102.0625 0.308594 C 109.609375 0.660156 115.5625 4.234375 119.523438 10.71875 C 122.335938 15.316406 124.859375 20.089844 127.523438 24.777344 C 127.960938 25.546875 128.46875 26.269531 129.148438 27.34375 C 131.363281 26.226562 133.488281 25.152344 136.378906 23.695312 C 133.535156 34.15625 130.339844 43.785156 127.214844 53.875 C 117.035156 51.34375 107.136719 48.886719 96.4375 46.226562 C 99.273438 44.492188 101.394531 43.191406 104.113281 41.523438 Z M 104.113281 41.523438 " fill-opacity="1" fill-rule="nonzero"/><path fill="#3a5f7d" d="M 80.414062 102.632812 C 80.414062 112.0625 80.414062 121.375 80.414062 130.914062 C 79.066406 131.003906 77.949219 131.144531 76.828125 131.144531 C 68.488281 131.164062 60.148438 131.160156 51.8125 131.148438 C 50.785156 131.148438 49.75 131.152344 48.738281 131.015625 C 45.292969 130.542969 43.492188 128.773438 43.007812 125.292969 C 42.484375 121.527344 42.992188 117.796875 44.382812 114.324219 C 45.804688 110.769531 47.71875 107.414062 49.417969 103.96875 C 50.042969 102.699219 50.976562 102.109375 52.46875 102.121094 C 61.445312 102.191406 70.425781 102.1875 79.402344 102.226562 C 79.636719 102.226562 79.867188 102.40625 80.414062 102.632812 Z M 80.414062 102.632812 " fill-opacity="1" fill-rule="nonzero"/><path fill="#3a5f7d" d="M 74.8125 51.351562 C 66.339844 46.5625 58.140625 41.929688 49.695312 37.160156 C 51.183594 34.476562 52.472656 32.140625 53.765625 29.808594 C 57.066406 23.867188 60.535156 18.011719 63.625 11.960938 C 67.003906 5.34375 72.050781 6.097656 76.457031 8.703125 C 82.289062 12.152344 85.789062 17.753906 88.796875 23.625 C 89.179688 24.371094 89.054688 25.71875 88.632812 26.496094 C 84.15625 34.691406 79.570312 42.832031 74.8125 51.351562 Z M 74.8125 51.351562 " fill-opacity="1" fill-rule="nonzero"/><path fill="#3a5f7d" d="M 121 71.785156 C 128.800781 67.027344 136.753906 62.175781 144.917969 57.195312 C 145.628906 58.144531 146.289062 58.886719 146.792969 59.722656 C 151.371094 67.289062 155.941406 74.859375 160.46875 82.457031 C 162.890625 86.515625 162.625 88.636719 159.550781 92.113281 C 157.792969 94.105469 155.582031 95.335938 153.089844 96.089844 C 148.265625 97.550781 143.324219 98.132812 138.28125 98.027344 C 136.878906 97.996094 135.847656 97.613281 135.097656 96.351562 C 130.449219 88.527344 125.761719 80.730469 121.101562 72.914062 C 120.988281 72.722656 121.050781 72.425781 121 71.785156 Z M 121 71.785156 " fill-opacity="1" fill-rule="nonzero"/></svg>