<svg xmlns="http://www.w3.org/2000/svg" xmlns:xlink="http://www.w3.org/1999/xlink" width="244" zoomAndPan="magnify" viewBox="0 0 183 139.500001" height="186" preserveAspectRatio="xMidYMid meet" version="1.0"><defs><clipPath id="77f6a61b04"><path d="M 92 74 L 148.640625 74 L 148.640625 110.605469 L 92 110.605469 Z M 92 74 " clip-rule="nonzero"/></clipPath></defs><g clip-path="url(#77f6a61b04)"><path fill="#3a5f7d" d="M 109.964844 80.957031 C 110.980469 81.050781 111.773438 81.179688 112.5625 81.183594 C 118.484375 81.207031 124.410156 81.300781 130.332031 81.175781 C 133.175781 81.117188 136.035156 80.792969 138.839844 80.308594 C 142.523438 79.667969 145.835938 78.128906 148.679688 74.878906 C 148.671875 78.09375 147.90625 80.632812 146.605469 83.007812 C 144.394531 87.035156 142.136719 91.035156 139.851562 95.023438 C 136.292969 101.238281 130.917969 104.335938 123.734375 104.285156 C 120.265625 104.261719 116.792969 104.277344 113.320312 104.277344 C 112.3125 104.277344 111.308594 104.277344 109.957031 104.277344 C 109.835938 106.511719 109.730469 108.496094 109.621094 110.507812 C 107.597656 109.355469 96.734375 98.03125 92.554688 92.6875 C 97.742188 86.554688 103.589844 80.945312 109.535156 74.378906 C 109.707031 76.984375 109.832031 78.910156 109.964844 80.957031 Z M 109.964844 80.957031 " fill-opacity="1" fill-rule="nonzero"/></g><path fill="#3a5f7d" d="M 45.191406 52.683594 C 43.359375 51.515625 41.824219 50.535156 40.253906 49.53125 C 42.03125 48.339844 57.589844 44.773438 64.199219 44.039062 C 66.625 51.777344 68.5625 59.707031 70.929688 68.214844 C 68.582031 66.863281 66.933594 65.910156 65.3125 64.976562 C 64.90625 65.308594 64.601562 65.449219 64.460938 65.6875 C 60.539062 72.257812 56.472656 78.75 52.773438 85.441406 C 50.136719 90.21875 48.496094 95.359375 50.257812 101.5625 C 47.640625 99.824219 45.949219 98.105469 44.730469 95.992188 C 42.128906 91.484375 39.476562 86.996094 37.132812 82.355469 C 34.3125 76.777344 34.496094 71.109375 37.609375 65.648438 C 39.628906 62.101562 41.800781 58.644531 43.890625 55.136719 C 44.296875 54.457031 44.636719 53.734375 45.191406 52.683594 Z M 45.191406 52.683594 " fill-opacity="1" fill-rule="nonzero"/><path fill="#3a5f7d" d="M 101.527344 33.011719 C 96.753906 25.082031 92.363281 17.488281 87.65625 10.09375 C 85.261719 6.324219 81.851562 3.523438 77.011719 2.382812 C 79.230469 0.652344 81.617188 0.292969 83.964844 0.234375 C 89.273438 0.101562 94.59375 -0.00390625 99.894531 0.246094 C 105.894531 0.527344 110.628906 3.367188 113.777344 8.519531 C 116.011719 12.175781 118.019531 15.972656 120.136719 19.699219 C 120.484375 20.308594 120.886719 20.886719 121.429688 21.738281 C 123.191406 20.851562 124.878906 19.996094 127.175781 18.835938 C 124.914062 27.15625 122.375 34.808594 119.890625 42.832031 C 111.800781 40.820312 103.929688 38.867188 95.421875 36.75 C 97.675781 35.371094 99.363281 34.339844 101.527344 33.011719 Z M 101.527344 33.011719 " fill-opacity="1" fill-rule="nonzero"/><path fill="#3a5f7d" d="M 82.683594 81.597656 C 82.683594 89.09375 82.683594 96.496094 82.683594 104.082031 C 81.613281 104.152344 80.722656 104.261719 79.832031 104.265625 C 73.203125 104.277344 66.574219 104.273438 59.941406 104.265625 C 59.128906 104.265625 58.304688 104.269531 57.5 104.160156 C 54.761719 103.785156 53.328125 102.378906 52.945312 99.609375 C 52.527344 96.617188 52.933594 93.652344 54.035156 90.890625 C 55.167969 88.066406 56.691406 85.398438 58.039062 82.660156 C 58.539062 81.648438 59.28125 81.179688 60.464844 81.1875 C 67.601562 81.246094 74.742188 81.242188 81.878906 81.273438 C 82.066406 81.273438 82.246094 81.417969 82.683594 81.597656 Z M 82.683594 81.597656 " fill-opacity="1" fill-rule="nonzero"/><path fill="#3a5f7d" d="M 78.230469 40.824219 C 71.496094 37.019531 64.972656 33.335938 58.261719 29.542969 C 59.445312 27.410156 60.46875 25.550781 61.496094 23.699219 C 64.121094 18.976562 66.878906 14.320312 69.335938 9.507812 C 72.023438 4.246094 76.035156 4.847656 79.539062 6.921875 C 84.171875 9.664062 86.957031 14.117188 89.347656 18.78125 C 89.652344 19.378906 89.554688 20.445312 89.21875 21.0625 C 85.660156 27.582031 82.011719 34.050781 78.230469 40.824219 Z M 78.230469 40.824219 " fill-opacity="1" fill-rule="nonzero"/><path fill="#3a5f7d" d="M 114.949219 57.070312 C 121.152344 53.289062 127.472656 49.429688 133.964844 45.472656 C 134.53125 46.226562 135.054688 46.816406 135.457031 47.480469 C 139.09375 53.496094 142.730469 59.515625 146.328125 65.554688 C 148.253906 68.78125 148.042969 70.46875 145.601562 73.230469 C 144.199219 74.816406 142.445312 75.792969 140.460938 76.394531 C 136.625 77.558594 132.699219 78.019531 128.691406 77.933594 C 127.574219 77.910156 126.753906 77.605469 126.160156 76.601562 C 122.464844 70.382812 118.738281 64.183594 115.03125 57.96875 C 114.941406 57.816406 114.988281 57.582031 114.949219 57.070312 Z M 114.949219 57.070312 " fill-opacity="1" fill-rule="nonzero"/></svg>